<svg width="160" height="119" viewBox="0 0 160 119" fill="none" xmlns="http://www.w3.org/2000/svg">
<g clip-path="url(#clip0_5_314)">
<g opacity="0.3">
<path d="M110.412 65.9042H93.4654C92.8653 65.9042 92.3788 66.3907 92.3788 66.9909V70.5974C92.3788 71.1976 92.8653 71.6841 93.4654 71.6841H110.412C111.012 71.6841 111.498 71.1976 111.498 70.5974V66.9909C111.498 66.3907 111.012 65.9042 110.412 65.9042Z" fill="#F2F2F2"/>
<path d="M130.42 71.6841H113.474C112.874 71.6841 112.388 72.1706 112.388 72.7708V76.3773C112.388 76.9775 112.874 77.464 113.474 77.464H130.42C131.021 77.464 131.507 76.9775 131.507 76.3773V72.7708C131.507 72.1706 131.021 71.6841 130.42 71.6841Z" fill="#F2F2F2"/>
<path d="M150.431 77.4654H133.484C132.884 77.4654 132.398 77.9519 132.398 78.5521V82.1587C132.398 82.7588 132.884 83.2453 133.484 83.2453H150.431C151.031 83.2453 151.517 82.7588 151.517 82.1587V78.5521C151.517 77.9519 151.031 77.4654 150.431 77.4654Z" fill="#F2F2F2"/>
<path d="M110.412 57.2329H93.4654C92.8653 57.2329 92.3788 57.7194 92.3788 58.3196V61.9261C92.3788 62.5263 92.8653 63.0128 93.4654 63.0128H110.412C111.012 63.0128 111.498 62.5263 111.498 61.9261V58.3196C111.498 57.7194 111.012 57.2329 110.412 57.2329Z" fill="#F2F2F2"/>
<path d="M130.42 63.0143H113.474C112.874 63.0143 112.388 63.5008 112.388 64.1009V67.7075C112.388 68.3076 112.874 68.7941 113.474 68.7941H130.42C131.021 68.7941 131.507 68.3076 131.507 67.7075V64.1009C131.507 63.5008 131.021 63.0143 130.42 63.0143Z" fill="#F2F2F2"/>
<path d="M150.431 68.7941H133.484C132.884 68.7941 132.398 69.2807 132.398 69.8808V73.4874C132.398 74.0875 132.884 74.574 133.484 74.574H150.431C151.031 74.574 151.517 74.0875 151.517 73.4874V69.8808C151.517 69.2807 151.031 68.7941 150.431 68.7941Z" fill="#F2F2F2"/>
<path d="M110.412 45.6731H93.4654C92.8653 45.6731 92.3788 46.1596 92.3788 46.7598V50.3664C92.3788 50.9665 92.8653 51.453 93.4654 51.453H110.412C111.012 51.453 111.498 50.9665 111.498 50.3664V46.7598C111.498 46.1596 111.012 45.6731 110.412 45.6731Z" fill="#F2F2F2"/>
<path d="M130.42 51.453H113.474C112.874 51.453 112.388 51.9395 112.388 52.5397V56.1462C112.388 56.7464 112.874 57.2329 113.474 57.2329H130.42C131.021 57.2329 131.507 56.7464 131.507 56.1462V52.5397C131.507 51.9395 131.021 51.453 130.42 51.453Z" fill="#F2F2F2"/>
<path d="M150.431 57.2329H133.484C132.884 57.2329 132.398 57.7194 132.398 58.3196V61.9261C132.398 62.5263 132.884 63.0128 133.484 63.0128H150.431C151.031 63.0128 151.517 62.5263 151.517 61.9261V58.3196C151.517 57.7194 151.031 57.2329 150.431 57.2329Z" fill="#F2F2F2"/>
<path d="M110.412 37.0018H93.4654C92.8653 37.0018 92.3788 37.4883 92.3788 38.0885V41.6951C92.3788 42.2952 92.8653 42.7817 93.4654 42.7817H110.412C111.012 42.7817 111.498 42.2952 111.498 41.6951V38.0885C111.498 37.4883 111.012 37.0018 110.412 37.0018Z" fill="#F2F2F2"/>
<path d="M130.42 42.7817H113.474C112.874 42.7817 112.388 43.2682 112.388 43.8684V47.4749C112.388 48.0751 112.874 48.5616 113.474 48.5616H130.42C131.021 48.5616 131.507 48.0751 131.507 47.4749V43.8684C131.507 43.2682 131.021 42.7817 130.42 42.7817Z" fill="#F2F2F2"/>
<path d="M150.431 48.5631H133.484C132.884 48.5631 132.398 49.0496 132.398 49.6497V53.2563C132.398 53.8565 132.884 54.343 133.484 54.343H150.431C151.031 54.343 151.517 53.8565 151.517 53.2563V49.6497C151.517 49.0496 151.031 48.5631 150.431 48.5631Z" fill="#F2F2F2"/>
<path opacity="0.1" d="M110.412 65.9042H93.4654C92.8653 65.9042 92.3788 66.3907 92.3788 66.9909V70.5974C92.3788 71.1976 92.8653 71.6841 93.4654 71.6841H110.412C111.012 71.6841 111.498 71.1976 111.498 70.5974V66.9909C111.498 66.3907 111.012 65.9042 110.412 65.9042Z" fill="#5953C4"/>
<path opacity="0.1" d="M130.42 71.6841H113.474C112.874 71.6841 112.388 72.1706 112.388 72.7708V76.3773C112.388 76.9775 112.874 77.464 113.474 77.464H130.42C131.021 77.464 131.507 76.9775 131.507 76.3773V72.7708C131.507 72.1706 131.021 71.6841 130.42 71.6841Z" fill="#5953C4"/>
<path opacity="0.1" d="M150.431 77.4654H133.484C132.884 77.4654 132.398 77.9519 132.398 78.5521V82.1587C132.398 82.7588 132.884 83.2453 133.484 83.2453H150.431C151.031 83.2453 151.517 82.7588 151.517 82.1587V78.5521C151.517 77.9519 151.031 77.4654 150.431 77.4654Z" fill="#5953C4"/>
<path opacity="0.1" d="M110.412 57.2329H93.4654C92.8653 57.2329 92.3788 57.7194 92.3788 58.3196V61.9261C92.3788 62.5263 92.8653 63.0128 93.4654 63.0128H110.412C111.012 63.0128 111.498 62.5263 111.498 61.9261V58.3196C111.498 57.7194 111.012 57.2329 110.412 57.2329Z" fill="#5953C4"/>
<path opacity="0.1" d="M130.42 63.0143H113.474C112.874 63.0143 112.388 63.5008 112.388 64.1009V67.7075C112.388 68.3076 112.874 68.7941 113.474 68.7941H130.42C131.021 68.7941 131.507 68.3076 131.507 67.7075V64.1009C131.507 63.5008 131.021 63.0143 130.42 63.0143Z" fill="#5953C4"/>
<path opacity="0.1" d="M150.431 68.7941H133.484C132.884 68.7941 132.398 69.2807 132.398 69.8808V73.4874C132.398 74.0875 132.884 74.574 133.484 74.574H150.431C151.031 74.574 151.517 74.0875 151.517 73.4874V69.8808C151.517 69.2807 151.031 68.7941 150.431 68.7941Z" fill="#5953C4"/>
<path opacity="0.1" d="M110.412 45.6731H93.4654C92.8653 45.6731 92.3788 46.1596 92.3788 46.7598V50.3664C92.3788 50.9665 92.8653 51.453 93.4654 51.453H110.412C111.012 51.453 111.498 50.9665 111.498 50.3664V46.7598C111.498 46.1596 111.012 45.6731 110.412 45.6731Z" fill="#5953C4"/>
<path opacity="0.1" d="M130.42 51.453H113.474C112.874 51.453 112.388 51.9395 112.388 52.5397V56.1462C112.388 56.7464 112.874 57.2329 113.474 57.2329H130.42C131.021 57.2329 131.507 56.7464 131.507 56.1462V52.5397C131.507 51.9395 131.021 51.453 130.42 51.453Z" fill="#5953C4"/>
<path opacity="0.1" d="M150.431 57.2329H133.484C132.884 57.2329 132.398 57.7194 132.398 58.3196V61.9261C132.398 62.5263 132.884 63.0128 133.484 63.0128H150.431C151.031 63.0128 151.517 62.5263 151.517 61.9261V58.3196C151.517 57.7194 151.031 57.2329 150.431 57.2329Z" fill="#5953C4"/>
<path opacity="0.1" d="M110.412 37.0018H93.4654C92.8653 37.0018 92.3788 37.4883 92.3788 38.0885V41.6951C92.3788 42.2952 92.8653 42.7817 93.4654 42.7817H110.412C111.012 42.7817 111.498 42.2952 111.498 41.6951V38.0885C111.498 37.4883 111.012 37.0018 110.412 37.0018Z" fill="#5953C4"/>
<path opacity="0.1" d="M130.42 42.7817H113.474C112.874 42.7817 112.388 43.2682 112.388 43.8684V47.4749C112.388 48.0751 112.874 48.5616 113.474 48.5616H130.42C131.021 48.5616 131.507 48.0751 131.507 47.4749V43.8684C131.507 43.2682 131.021 42.7817 130.42 42.7817Z" fill="#5953C4"/>
<path opacity="0.1" d="M150.431 48.5631H133.484C132.884 48.5631 132.398 49.0496 132.398 49.6497V53.2563C132.398 53.8565 132.884 54.343 133.484 54.343H150.431C151.031 54.343 151.517 53.8565 151.517 53.2563V49.6497C151.517 49.0496 151.031 48.5631 150.431 48.5631Z" fill="#5953C4"/>
</g>
<g opacity="0.3">
<path d="M35.5305 28.9024H18.5843C17.9841 28.9024 17.4976 29.3889 17.4976 29.989V33.5956C17.4976 34.1958 17.9841 34.6823 18.5843 34.6823H35.5305C36.1307 34.6823 36.6172 34.1958 36.6172 33.5956V29.989C36.6172 29.3889 36.1307 28.9024 35.5305 28.9024Z" fill="#F2F2F2"/>
<path d="M55.5393 34.6823H38.5931C37.9929 34.6823 37.5064 35.1688 37.5064 35.7689V39.3755C37.5064 39.9756 37.9929 40.4621 38.5931 40.4621H55.5393C56.1395 40.4621 56.626 39.9756 56.626 39.3755V35.7689C56.626 35.1688 56.1395 34.6823 55.5393 34.6823Z" fill="#F2F2F2"/>
<path d="M75.5496 40.4636H58.6033C58.0032 40.4636 57.5167 40.9501 57.5167 41.5503V45.1569C57.5167 45.757 58.0032 46.2435 58.6033 46.2435H75.5496C76.1497 46.2435 76.6362 45.757 76.6362 45.1569V41.5503C76.6362 40.9501 76.1497 40.4636 75.5496 40.4636Z" fill="#F2F2F2"/>
<path d="M35.5305 20.2311H18.5843C17.9841 20.2311 17.4976 20.7176 17.4976 21.3177V24.9243C17.4976 25.5245 17.9841 26.011 18.5843 26.011H35.5305C36.1307 26.011 36.6172 25.5245 36.6172 24.9243V21.3177C36.6172 20.7176 36.1307 20.2311 35.5305 20.2311Z" fill="#F2F2F2"/>
<path d="M55.5393 26.0124H38.5931C37.9929 26.0124 37.5064 26.4989 37.5064 27.0991V30.7057C37.5064 31.3058 37.9929 31.7923 38.5931 31.7923H55.5393C56.1395 31.7923 56.626 31.3058 56.626 30.7057V27.0991C56.626 26.4989 56.1395 26.0124 55.5393 26.0124Z" fill="#F2F2F2"/>
<path d="M75.5496 31.7923H58.6033C58.0032 31.7923 57.5167 32.2788 57.5167 32.879V36.4856C57.5167 37.0857 58.0032 37.5722 58.6033 37.5722H75.5496C76.1497 37.5722 76.6362 37.0857 76.6362 36.4856V32.879C76.6362 32.2788 76.1497 31.7923 75.5496 31.7923Z" fill="#F2F2F2"/>
<path d="M35.5305 8.6713H18.5843C17.9841 8.6713 17.4976 9.15781 17.4976 9.75795V13.3645C17.4976 13.9647 17.9841 14.4512 18.5843 14.4512H35.5305C36.1307 14.4512 36.6172 13.9647 36.6172 13.3645V9.75795C36.6172 9.15781 36.1307 8.6713 35.5305 8.6713Z" fill="#F2F2F2"/>
<path d="M55.5393 14.4512H38.5931C37.9929 14.4512 37.5064 14.9377 37.5064 15.5378V19.1444C37.5064 19.7446 37.9929 20.2311 38.5931 20.2311H55.5393C56.1395 20.2311 56.626 19.7446 56.626 19.1444V15.5378C56.626 14.9377 56.1395 14.4512 55.5393 14.4512Z" fill="#F2F2F2"/>
<path d="M75.5496 20.2311H58.6033C58.0032 20.2311 57.5167 20.7176 57.5167 21.3177V24.9243C57.5167 25.5245 58.0032 26.011 58.6033 26.011H75.5496C76.1497 26.011 76.6362 25.5245 76.6362 24.9243V21.3177C76.6362 20.7176 76.1497 20.2311 75.5496 20.2311Z" fill="#F2F2F2"/>
<path d="M35.5305 0H18.5843C17.9841 0 17.4976 0.486512 17.4976 1.08665V4.69324C17.4976 5.29338 17.9841 5.77989 18.5843 5.77989H35.5305C36.1307 5.77989 36.6172 5.29338 36.6172 4.69324V1.08665C36.6172 0.486512 36.1307 0 35.5305 0Z" fill="#F2F2F2"/>
<path d="M55.5393 5.77988H38.5931C37.9929 5.77988 37.5064 6.26639 37.5064 6.86653V10.4731C37.5064 11.0733 37.9929 11.5598 38.5931 11.5598H55.5393C56.1395 11.5598 56.626 11.0733 56.626 10.4731V6.86653C56.626 6.26639 56.1395 5.77988 55.5393 5.77988Z" fill="#F2F2F2"/>
<path d="M75.5496 11.5612H58.6033C58.0032 11.5612 57.5167 12.0478 57.5167 12.6479V16.2545C57.5167 16.8546 58.0032 17.3411 58.6033 17.3411H75.5496C76.1497 17.3411 76.6362 16.8546 76.6362 16.2545V12.6479C76.6362 12.0478 76.1497 11.5612 75.5496 11.5612Z" fill="#F2F2F2"/>
<path opacity="0.1" d="M35.5305 28.9024H18.5843C17.9841 28.9024 17.4976 29.3889 17.4976 29.989V33.5956C17.4976 34.1958 17.9841 34.6823 18.5843 34.6823H35.5305C36.1307 34.6823 36.6172 34.1958 36.6172 33.5956V29.989C36.6172 29.3889 36.1307 28.9024 35.5305 28.9024Z" fill="#5953C4"/>
<path opacity="0.1" d="M55.5393 34.6823H38.5931C37.9929 34.6823 37.5064 35.1688 37.5064 35.7689V39.3755C37.5064 39.9756 37.9929 40.4621 38.5931 40.4621H55.5393C56.1395 40.4621 56.626 39.9756 56.626 39.3755V35.7689C56.626 35.1688 56.1395 34.6823 55.5393 34.6823Z" fill="#5953C4"/>
<path opacity="0.1" d="M75.5496 40.4636H58.6033C58.0032 40.4636 57.5167 40.9501 57.5167 41.5503V45.1569C57.5167 45.757 58.0032 46.2435 58.6033 46.2435H75.5496C76.1497 46.2435 76.6362 45.757 76.6362 45.1569V41.5503C76.6362 40.9501 76.1497 40.4636 75.5496 40.4636Z" fill="#5953C4"/>
<path opacity="0.1" d="M35.5305 20.2311H18.5843C17.9841 20.2311 17.4976 20.7176 17.4976 21.3177V24.9243C17.4976 25.5245 17.9841 26.011 18.5843 26.011H35.5305C36.1307 26.011 36.6172 25.5245 36.6172 24.9243V21.3177C36.6172 20.7176 36.1307 20.2311 35.5305 20.2311Z" fill="#5953C4"/>
<path opacity="0.1" d="M55.5393 26.0124H38.5931C37.9929 26.0124 37.5064 26.4989 37.5064 27.0991V30.7057C37.5064 31.3058 37.9929 31.7923 38.5931 31.7923H55.5393C56.1395 31.7923 56.626 31.3058 56.626 30.7057V27.0991C56.626 26.4989 56.1395 26.0124 55.5393 26.0124Z" fill="#5953C4"/>
<path opacity="0.1" d="M75.5496 31.7923H58.6033C58.0032 31.7923 57.5167 32.2788 57.5167 32.879V36.4856C57.5167 37.0857 58.0032 37.5722 58.6033 37.5722H75.5496C76.1497 37.5722 76.6362 37.0857 76.6362 36.4856V32.879C76.6362 32.2788 76.1497 31.7923 75.5496 31.7923Z" fill="#5953C4"/>
<path opacity="0.1" d="M35.5305 8.6713H18.5843C17.9841 8.6713 17.4976 9.15781 17.4976 9.75795V13.3645C17.4976 13.9647 17.9841 14.4512 18.5843 14.4512H35.5305C36.1307 14.4512 36.6172 13.9647 36.6172 13.3645V9.75795C36.6172 9.15781 36.1307 8.6713 35.5305 8.6713Z" fill="#5953C4"/>
<path opacity="0.1" d="M55.5393 14.4512H38.5931C37.9929 14.4512 37.5064 14.9377 37.5064 15.5378V19.1444C37.5064 19.7446 37.9929 20.2311 38.5931 20.2311H55.5393C56.1395 20.2311 56.626 19.7446 56.626 19.1444V15.5378C56.626 14.9377 56.1395 14.4512 55.5393 14.4512Z" fill="#5953C4"/>
<path opacity="0.1" d="M75.5496 20.2311H58.6033C58.0032 20.2311 57.5167 20.7176 57.5167 21.3177V24.9243C57.5167 25.5245 58.0032 26.011 58.6033 26.011H75.5496C76.1497 26.011 76.6362 25.5245 76.6362 24.9243V21.3177C76.6362 20.7176 76.1497 20.2311 75.5496 20.2311Z" fill="#5953C4"/>
<path opacity="0.1" d="M35.5305 0H18.5843C17.9841 0 17.4976 0.486512 17.4976 1.08665V4.69324C17.4976 5.29338 17.9841 5.77989 18.5843 5.77989H35.5305C36.1307 5.77989 36.6172 5.29338 36.6172 4.69324V1.08665C36.6172 0.486512 36.1307 0 35.5305 0Z" fill="#5953C4"/>
<path opacity="0.1" d="M55.5393 5.77988H38.5931C37.9929 5.77988 37.5064 6.26639 37.5064 6.86653V10.4731C37.5064 11.0733 37.9929 11.5598 38.5931 11.5598H55.5393C56.1395 11.5598 56.626 11.0733 56.626 10.4731V6.86653C56.626 6.26639 56.1395 5.77988 55.5393 5.77988Z" fill="#5953C4"/>
<path opacity="0.1" d="M75.5496 11.5612H58.6033C58.0032 11.5612 57.5167 12.0478 57.5167 12.6479V16.2545C57.5167 16.8546 58.0032 17.3411 58.6033 17.3411H75.5496C76.1497 17.3411 76.6362 16.8546 76.6362 16.2545V12.6479C76.6362 12.0478 76.1497 11.5612 75.5496 11.5612Z" fill="#5953C4"/>
</g>
<g opacity="0.1">
<path d="M43.2336 80.7605C43.2358 81.5896 43.1505 82.4166 42.9791 83.2278C42.947 83.374 42.9119 83.5305 42.8768 83.6768C41.9744 87.2994 39.4252 89.9495 36.3846 90.1119C36.2837 90.1119 36.1813 90.1206 36.076 90.1206C32.8585 90.1206 30.1411 87.3419 29.2446 83.5276C29.2183 83.4252 29.1963 83.3243 29.1744 83.2219C29.003 82.4108 28.9177 81.5837 28.9199 80.7546C28.9199 75.5788 32.1228 71.3945 36.076 71.3945C40.0292 71.3945 43.2336 75.5846 43.2336 80.7605Z" fill="#3F3D56"/>
<path opacity="0.1" d="M43.2336 80.7605C43.2358 81.5896 43.1505 82.4166 42.9791 83.2278C42.947 83.3741 42.9119 83.5305 42.8768 83.6768C42.7685 83.6768 42.6632 83.6768 42.5565 83.6636C41.7691 83.6205 40.9865 83.5134 40.2164 83.3433C39.5336 83.5538 38.836 83.7132 38.1294 83.8201C37.5875 83.8994 37.0417 83.9482 36.4943 83.9664C36.31 83.9664 36.1258 83.9766 35.9415 83.9766C35.2861 83.9763 34.6314 83.9328 33.9817 83.8464C32.9331 83.7049 31.9032 83.4489 30.9104 83.083C30.3663 83.2622 29.812 83.4087 29.2504 83.5218C29.2241 83.4194 29.2022 83.3185 29.1802 83.2161C29.0088 82.4049 28.9235 81.5779 28.9258 80.7488C28.9258 75.573 32.1287 71.3887 36.0819 71.3887C40.0351 71.3887 43.2336 75.5847 43.2336 80.7605Z" fill="black"/>
<path d="M58.5009 63.3082C58.504 61.0312 57.9704 58.7855 56.9433 56.7532L48.5265 59.3697L55.9137 55.026C54.6751 53.2355 53.05 51.7461 51.1585 50.668C49.267 49.5899 47.1575 48.9505 44.9857 48.7971C44.6406 48.2725 44.262 47.7708 43.8523 47.2951L31.7528 51.0581L41.6672 45.2285C39.7711 43.7757 37.5463 42.8122 35.1895 42.423C32.8326 42.0338 30.4162 42.231 28.1536 42.9972C25.891 43.7633 23.8519 45.0748 22.2164 46.8159C20.5809 48.5569 19.3992 50.6739 18.7758 52.9799L29.132 64.9009L17.8822 56.781C15.0374 58.7988 13.0121 61.7715 12.1753 65.1574C11.3385 68.5433 11.7459 72.1172 13.3233 75.2279C14.9006 78.3386 17.5429 80.7792 20.7689 82.105C23.9949 83.4309 27.5897 83.5537 30.8987 82.4512C33.8944 83.5511 37.1677 83.641 40.2193 82.7071C42.3455 83.1771 44.5501 83.1641 46.6706 82.6689C48.7911 82.1737 50.7734 81.2091 52.4716 79.8461C54.1698 78.4831 55.5405 76.7564 56.4827 74.7933C57.4249 72.8301 57.9147 70.6806 57.9159 68.5031C57.9159 68.1799 57.9042 67.8596 57.8837 67.5408C58.2968 66.168 58.5048 64.7418 58.5009 63.3082Z" fill="#5953C4"/>
<path opacity="0.1" d="M58.2508 66.0066C53.8058 65.1639 49.2475 65.106 44.7825 65.8355C39.7294 66.672 34.5638 68.5104 29.6205 67.1664C26.7203 66.3766 24.2091 64.5514 21.3792 63.5393C18.6453 62.5827 15.6993 62.4049 12.8702 63.026C11.7911 65.6049 11.4776 68.4399 11.967 71.1923C12.4564 73.9447 13.7281 76.4979 15.6301 78.5467C17.532 80.5955 19.9838 82.0533 22.6922 82.7457C25.4007 83.4381 28.2512 83.3358 30.9031 82.4512C33.8975 83.5501 37.1691 83.64 40.2194 82.7071C42.3456 83.1771 44.5501 83.1641 46.6706 82.6689C48.7911 82.1737 50.7735 81.2091 52.4716 79.8461C54.1698 78.4831 55.5405 76.7564 56.4827 74.7933C57.425 72.8301 57.9147 70.6806 57.9159 68.5031C57.9159 68.1799 57.9042 67.8596 57.8837 67.5408C58.034 67.0365 58.1566 66.5243 58.2508 66.0066Z" fill="black"/>
</g>
<path opacity="0.1" d="M80 116.87C124.183 116.87 160 110.355 160 102.318C160 94.2812 124.183 87.766 80 87.766C35.8172 87.766 0 94.2812 0 102.318C0 110.355 35.8172 116.87 80 116.87Z" fill="#5953C4"/>
<path d="M106.279 103.996C106.386 103.556 106.6 103.149 106.901 102.81C107.201 102.472 107.58 102.212 108.005 102.053C108.429 101.895 108.885 101.842 109.334 101.9C109.783 101.959 110.212 102.126 110.581 102.387L110.695 102.47C113.142 104.304 111.69 107.668 110.695 107.744C109.701 107.82 107.788 107.902 107.788 107.902C107.788 107.902 105.534 106.972 106.279 103.996Z" fill="#192534"/>
<path d="M128.354 101.71V102.321C128.354 102.321 118.409 103.008 117.347 103.008H115.359C115.359 103.008 115.33 103.039 115.282 103.095C115.2 103.187 115.061 103.349 114.907 103.551C114.595 103.958 114.222 104.525 114.135 104.996C113.989 105.837 113.448 106.143 113.448 106.143L111.46 105.609L109.543 103.316L109.264 103.046L108.468 102.287L107.788 101.637L107.822 101.271V101.215C107.984 100.43 108.192 99.6543 108.445 98.8929C108.445 98.8724 108.458 98.8504 108.465 98.83C109.016 97.1744 109.936 95.1634 111.261 94.5653C111.362 94.5199 111.468 94.476 111.58 94.4366L111.715 94.3897C114.257 93.5386 119.06 93.8764 119.06 93.8764C119.06 93.8764 122.728 94.947 123.035 95.4062C123.342 95.8654 126.818 99.6475 126.818 99.6475C127.123 99.8776 127.405 100.138 127.658 100.424C127.984 100.785 128.287 101.24 128.354 101.71Z" fill="#5953C4"/>
<path opacity="0.1" d="M107.485 106.755C108.076 106.755 108.556 106.002 108.556 105.074C108.556 104.145 108.076 103.392 107.485 103.392C106.894 103.392 106.415 104.145 106.415 105.074C106.415 106.002 106.894 106.755 107.485 106.755Z" fill="white"/>
<path opacity="0.1" d="M111.92 95.1356C111.92 95.1356 111.042 96.4812 110.115 98.2069C110.114 98.2113 110.114 98.2157 110.115 98.2201C109.868 98.6793 109.616 99.1634 109.376 99.6592L109.366 99.6826C109.366 99.6826 108.858 99.2804 108.459 98.8885C108.459 98.868 108.472 98.8461 108.48 98.8256C109.031 97.17 109.951 95.159 111.276 94.5609C111.377 94.5155 111.482 94.4717 111.595 94.4322L111.92 95.1356Z" fill="black"/>
<path opacity="0.1" d="M109.321 99.6461C109.321 99.6461 114.748 101.255 115.817 100.563C115.817 100.563 116.2 95.6709 113.678 95.3653C113.678 95.3653 112.225 94.9821 111.922 95.219C111.62 95.4559 109.321 99.6461 109.321 99.6461Z" fill="white"/>
<path opacity="0.1" d="M116.352 96.0526C116.352 96.0526 117.423 100.104 118.188 100.181C118.953 100.259 126.671 100.104 126.366 99.5686C126.062 99.0333 122.697 95.5949 122.697 95.5949L116.352 96.0526Z" fill="white"/>
<path d="M115.039 103.383C115.039 103.383 116.429 101.556 118.875 103.392C121.322 105.227 119.868 108.589 118.875 108.665C117.882 108.741 115.978 108.819 115.978 108.819C115.978 108.819 112.961 107.579 115.039 103.383Z" fill="#192534"/>
<path d="M129.47 103.848C129.368 103.559 129.207 103.295 128.998 103.071C128.789 102.848 128.536 102.67 128.254 102.549C127.973 102.429 127.67 102.368 127.364 102.37C127.058 102.373 126.755 102.439 126.476 102.564C126.203 102.693 125.944 102.85 125.704 103.033C123.526 104.665 124.826 107.659 125.704 107.728C126.021 107.751 126.444 107.776 126.855 107.798C127.276 107.821 127.696 107.745 128.082 107.577C128.469 107.41 128.811 107.155 129.083 106.832C129.354 106.51 129.547 106.129 129.646 105.72C129.745 105.31 129.748 104.883 129.654 104.472C129.605 104.261 129.543 104.052 129.47 103.848Z" fill="#192534"/>
<path opacity="0.1" d="M115.665 107.672C116.256 107.672 116.736 106.919 116.736 105.99C116.736 105.062 116.256 104.309 115.665 104.309C115.074 104.309 114.595 105.062 114.595 105.99C114.595 106.919 115.074 107.672 115.665 107.672Z" fill="white"/>
<path opacity="0.1" d="M118.646 102.78C118.646 102.78 118.499 100.563 120.863 101.48C123.226 102.397 121.704 103.392 121.704 103.392L118.646 102.78Z" fill="white"/>
<path opacity="0.1" d="M128.354 101.71V102.015L127.972 102.162L127.193 102.015C127.193 102.015 127.026 100.763 127.665 100.407C127.984 100.785 128.287 101.24 128.354 101.71Z" fill="white"/>
<path opacity="0.1" d="M128.354 101.724V102.321C128.354 102.321 118.409 103.008 117.347 103.008H117.338C116.788 102.716 116.238 102.586 115.776 102.78C115.636 102.838 115.503 102.915 115.383 103.008C115.348 103.036 115.314 103.065 115.282 103.095C115.136 103.228 115.01 103.382 114.907 103.551C114.223 104.658 114.369 106.372 114.369 106.372C112.382 106.984 110.318 105.379 110.318 105.379C109.944 104.256 109.594 103.523 109.274 103.039C108.981 102.6 108.715 102.385 108.478 102.28L107.788 101.637L107.822 101.271L113.369 105.305C113.369 105.305 113.904 101.865 115.124 102.094C116.344 102.324 118.793 102.324 118.793 102.324L128.354 101.724Z" fill="black"/>
<path d="M107.485 101.25C107.485 101.25 107.026 102.397 107.485 102.475C107.944 102.552 108.976 101.597 110.314 105.609C110.314 105.609 112.377 107.218 114.365 106.602C114.365 106.602 114.128 103.697 115.776 103.008C117.425 102.32 120.174 105.761 120.174 105.761V106.526L126.672 105.837C126.672 105.837 128.66 104.309 128.584 101.939L118.799 102.551C118.799 102.551 116.352 102.551 115.13 102.321C113.907 102.091 113.375 105.539 113.375 105.539L107.485 101.25Z" fill="#5953C4"/>
<path d="M79.9678 80.3437H79.9664C77.7079 80.3437 75.8771 82.1745 75.8771 84.4329V84.4344C75.8771 86.6928 77.7079 88.5236 79.9664 88.5236H79.9678C82.2262 88.5236 84.057 86.6928 84.057 84.4344V84.4329C84.057 82.1745 82.2262 80.3437 79.9678 80.3437Z" fill="#192534"/>
<path d="M77.8252 94.9587C78.3737 94.4775 78.9309 93.9876 79.3258 93.3748C79.6885 92.8132 79.902 92.1711 80.1024 91.5334C80.6747 89.7111 81.1676 87.8659 81.581 85.9978C79.3301 85.6541 77.6497 83.6665 75.4486 83.083C75.396 83.0684 73.7126 93.1832 73.5897 94.1075C73.4888 94.8709 72.6172 98.517 73.6102 98.5375C74.1411 98.5492 75.2497 97.2212 75.6417 96.8717L77.8252 94.9587Z" fill="#3F3D56"/>
<path opacity="0.1" d="M77.8252 94.9587C78.3737 94.4775 78.9309 93.9876 79.3258 93.3748C79.6885 92.8132 79.902 92.1711 80.1024 91.5334C80.6747 89.7111 81.1676 87.8659 81.581 85.9978C79.3301 85.6541 77.6497 83.6665 75.4486 83.083C75.396 83.0684 73.7126 93.1832 73.5897 94.1075C73.4888 94.8709 72.6172 98.517 73.6102 98.5375C74.1411 98.5492 75.2497 97.2212 75.6417 96.8717L77.8252 94.9587Z" fill="black"/>
<path d="M50.0095 69.4377C49.7609 69.4757 49.4976 69.4947 49.2928 69.6395C49.0003 69.8442 48.9257 70.2245 48.7868 70.555C48.6043 70.9793 48.2953 71.3368 47.902 71.5788C47.5671 71.7836 47.159 71.921 46.9587 72.2574C46.8454 72.484 46.7916 72.7356 46.8022 72.9887C46.7758 73.738 46.8095 74.4883 46.9031 75.2322C46.9499 75.6051 47.0113 75.9854 46.9338 76.3525C46.8446 76.781 46.5755 77.1452 46.3195 77.5006C45.7053 78.3503 45.1042 79.2834 45.0545 80.3305C45.0296 80.857 45.1466 81.3967 45.0135 81.9071C44.778 82.8124 43.8186 83.4033 43.6314 84.3188C43.5758 84.5894 43.5905 84.8761 43.4852 85.1291C43.3009 85.5678 42.7934 85.8077 42.6632 86.2596C42.5652 86.5989 42.7086 86.9572 42.7188 87.3097C42.7334 87.826 42.4629 88.3027 42.2025 88.7474L40.68 91.336C40.1857 92.1755 39.6797 93.053 39.5963 94.0241C39.5217 94.8856 39.7894 95.7382 40.0833 96.5514C40.7371 98.3576 41.7082 100.271 43.4998 100.965C44.5543 101.375 45.7287 101.287 46.8563 101.193C48.4007 101.066 49.9554 100.936 51.4457 100.513C52.1843 100.304 52.9082 100.025 53.6541 99.8757C54.1513 99.7777 54.6618 99.7294 55.1415 99.57C55.6598 99.3836 56.1185 99.0613 56.4695 98.6367C56.8205 98.2122 57.0508 97.701 57.1364 97.1569C57.774 97.4084 58.3649 96.5719 58.2742 95.8932C58.1835 95.2146 57.7272 94.6399 57.5429 93.9817C57.2797 93.0735 57.5429 92.0878 57.9817 91.2512C58.4205 90.4146 59.0259 89.6746 59.5042 88.86C60.037 87.948 60.4072 86.9503 60.5981 85.9115C60.8541 84.509 60.7766 83.0684 60.6976 81.6453L60.3963 76.2062C60.3407 75.2102 60.2779 74.1821 59.8391 73.2812C59.3579 72.2998 58.4804 71.5803 57.6044 70.9265C56.3115 69.943 54.9558 69.045 53.5459 68.2384C52.6362 67.7294 52.7005 67.9269 51.9766 68.5309C51.4158 69.0069 50.7356 69.3204 50.0095 69.4377Z" fill="#3F3D56"/>
<path d="M62.3034 84.5704C61.2694 85.3865 60.2223 86.2142 59.4267 87.2643C58.4656 88.5412 57.9204 90.0826 57.8647 91.6797C57.8554 92.4272 57.9078 93.1741 58.0212 93.913C58.1777 95.1196 58.4599 96.4636 59.4764 97.1305C60.117 97.5503 60.9974 97.6556 61.4347 98.2845C61.5722 98.4819 61.6526 98.7232 61.8135 98.8972C62.106 99.2132 62.5623 99.2819 62.9835 99.3053C63.6129 99.3407 64.2442 99.3211 64.8702 99.2468C65.5853 99.1605 66.3122 99.004 67.0201 99.1386C68.3978 99.3974 69.4259 100.698 70.8226 100.872C71.9824 101.018 73.0691 100.344 74.0402 99.7016C75.042 99.0391 76.0877 98.3298 76.6303 97.2578C77.1583 96.2164 77.129 94.9908 77.0881 93.8223C77.0428 92.525 76.996 91.2117 76.6493 89.9598C76.5416 89.6321 76.459 89.2967 76.4022 88.9565C76.2983 88.079 76.6947 87.2161 76.9872 86.3766C77.442 85.0998 77.6409 83.5261 76.7371 82.517C76.3554 82.0899 75.8245 81.8267 75.2863 81.6395C72.9097 80.7854 70.2859 81.11 67.8479 81.4932C65.521 81.8457 64.1287 83.1327 62.3034 84.5704Z" fill="#3F3D56"/>
<path d="M82.457 79.5159C81.5151 80.9302 80.5704 82.3547 79.8903 83.9035C79.4264 85.0276 79.0356 86.1805 78.7203 87.355C77.7813 90.6004 76.8497 93.9159 74.9747 96.7254C74.7056 97.1291 74.4073 97.5488 74.3795 98.0329C74.3532 98.4863 74.5696 98.9104 74.7788 99.3141C75.2175 100.168 75.6768 101.031 76.3027 101.765C76.9287 102.499 77.6775 103.055 78.4322 103.623C79.9985 104.793 81.7389 106.033 83.6972 105.945C84.1024 105.926 84.5353 105.833 84.8058 105.53C85.0764 105.227 85.1144 104.809 85.0662 104.42C84.9199 103.216 84.0131 102.27 83.1912 101.378C82.3693 100.486 81.5429 99.4428 81.6088 98.226C81.6599 97.2212 82.3181 96.3642 82.9484 95.5803C83.6694 94.6823 84.3919 93.7857 85.072 92.857C88.0131 88.8424 90.1367 84.2779 91.8201 79.5934C92.5294 77.6161 93.1744 75.5393 92.9535 73.4508C91.3448 73.056 88.1272 71.7368 86.7685 73.0984C85.9451 73.9232 85.3631 75.1459 84.721 76.1185L82.457 79.5159Z" fill="#FBBEBE"/>
<path d="M96.041 65.7843C95.0217 67.562 94.2241 69.4579 93.6658 71.4296C93.5298 71.9064 93.4084 72.4095 93.5123 72.8921C93.6249 73.4099 93.9773 73.8355 94.2435 74.2918C94.5097 74.7481 94.6969 75.3258 94.4556 75.7967C93.3148 75.8859 92.1843 75.5744 91.0815 75.2658L87.6241 74.3005C87.3376 74.2454 87.0689 74.1209 86.8417 73.9378C86.441 73.559 86.4717 72.9228 86.5492 72.3788C87.2263 67.9239 89.4011 63.8172 90.2157 59.3872C90.3342 58.7481 90.4585 58.0402 90.9675 57.6322C92.43 56.4768 95.7411 57.4552 96.4987 59.1283C97.3455 60.9857 96.9989 64.1155 96.041 65.7843Z" fill="#5953C4"/>
<path d="M77.5327 50.5594C77.4026 50.6267 77.2563 50.7057 77.2168 50.8431C77.208 50.918 77.2158 50.9938 77.2396 51.0654C77.2633 51.1369 77.3025 51.2023 77.3543 51.257L78.83 53.3338C80.2852 55.3813 81.7433 57.442 83.4267 59.3097C84.6974 60.7187 86.0892 62.0136 87.5861 63.1795C88.0073 63.5071 88.4563 63.8479 88.6625 64.3408C87.7428 61.6173 87.9062 58.6443 89.1188 56.038C89.6015 55.0143 90.2391 54.0651 90.7408 53.0472C90.7881 52.9912 90.8202 52.924 90.8339 52.8521C90.8476 52.7801 90.8426 52.7059 90.8192 52.6364C90.7958 52.567 90.7549 52.5048 90.7004 52.4558C90.6459 52.4068 90.5797 52.3727 90.5082 52.3568C89.23 51.6987 87.8318 51.3009 86.5594 50.6311C85.5605 50.1046 84.6581 49.4201 83.7616 48.7459C82.9616 48.1448 81.8969 47.083 80.9097 46.83C79.8435 46.555 79.8859 47.5276 79.5422 48.3393C79.147 49.288 78.4375 50.0719 77.5327 50.5594Z" fill="#FBBEBE"/>
<path opacity="0.1" d="M77.5327 50.5594C77.4026 50.6267 77.2563 50.7057 77.2168 50.8431C77.208 50.918 77.2158 50.9938 77.2396 51.0654C77.2633 51.1369 77.3025 51.2023 77.3543 51.257L78.83 53.3338C80.2852 55.3813 81.7433 57.442 83.4267 59.3097C84.6974 60.7187 86.0892 62.0136 87.5861 63.1795C88.0073 63.5071 88.4563 63.8479 88.6625 64.3408C87.7428 61.6173 87.9062 58.6443 89.1188 56.038C89.6015 55.0143 90.2391 54.0651 90.7408 53.0472C90.7881 52.9912 90.8202 52.924 90.8339 52.8521C90.8476 52.7801 90.8426 52.7059 90.8192 52.6364C90.7958 52.567 90.7549 52.5048 90.7004 52.4558C90.6459 52.4068 90.5797 52.3727 90.5082 52.3568C89.23 51.6987 87.8318 51.3009 86.5594 50.6311C85.5605 50.1046 84.6581 49.4201 83.7616 48.7459C82.9616 48.1448 81.8969 47.083 80.9097 46.83C79.8435 46.555 79.8859 47.5276 79.5422 48.3393C79.147 49.288 78.4375 50.0719 77.5327 50.5594Z" fill="black"/>
<path d="M86.5814 58.8358C85.913 58.0812 85.0106 57.5824 84.2194 56.9565C83.0816 56.0556 82.1821 54.8943 81.3134 53.7316C79.7192 51.592 78.1119 48.9711 78.9061 46.419C78.0622 46.3371 77.3339 47.0303 76.936 47.7777C76.5382 48.525 76.3335 49.3762 75.8377 50.0622C75.0845 51.1049 73.8033 51.5905 72.6099 52.0673C69.9866 53.117 67.4521 54.3764 65.0311 55.8333C64.0585 56.4183 63.0903 57.0457 62.3474 57.9027C61.5518 58.8168 61.053 59.9503 60.3774 60.9521C59.0611 62.9221 57.0604 64.4007 54.8403 65.2373C54.109 65.5152 53.3251 65.7316 52.6713 66.1733C51.2702 67.1196 50.6867 69.0062 51.0187 70.6647C51.3507 72.3232 52.4812 73.736 53.8399 74.7393C55.1986 75.7426 56.7459 76.3349 58.3137 76.9199C59.6281 77.4026 60.9507 77.8628 62.2816 78.3005C63.2608 78.6394 64.262 78.9111 65.2783 79.1137C67.1488 79.4574 69.0721 79.3726 70.9631 79.5817C72.6918 79.7718 74.3898 80.2091 76.1258 80.3305C77.8618 80.4519 79.7002 80.2208 81.1145 79.2102C82.2392 78.4073 82.988 77.1949 83.6797 75.9927C85.4756 72.8929 87.0796 69.6859 88.4827 66.3898C88.8966 65.4143 92.7371 59.8889 91.7807 59.1751C86.9646 55.5817 88.5631 61.2914 88.1039 60.8527C87.4896 60.2647 87.1371 59.4633 86.5814 58.8358Z" fill="#5953C4"/>
<path d="M80.6157 55.5305C79.5817 53.4508 78.8826 51.2249 78.1879 49.0106C77.9964 48.3963 77.8033 47.7324 78.0095 47.1239C78.2581 46.3927 79.0538 45.7682 78.8198 45.0355C76.9594 45.6205 74.7993 46.5375 74.4322 48.4548C74.3517 48.8731 74.3664 49.3192 74.1719 49.6965C73.7931 50.4366 72.8278 50.5945 72.0073 50.7203C69.6205 51.102 67.2483 52.0643 65.6132 53.8442C65.3382 54.1367 65.0794 54.4687 64.7357 54.6881C64.487 54.8346 64.2226 54.9523 63.9474 55.0391C62.3474 55.6139 60.702 56.3305 59.6724 57.6834C59.1415 58.3795 58.8022 59.2146 58.2099 59.8611C57.4084 60.7386 56.2282 61.1773 55.3609 61.9949C54.7759 62.5389 54.3591 63.2292 53.973 63.9269C52.487 66.6121 51.3975 69.7609 52.1858 72.7283C52.5967 74.2801 53.502 75.6622 53.989 77.192C54.6603 79.276 54.5945 81.6526 55.8538 83.4442C56.6479 84.5704 57.8764 85.3148 59.1342 85.8764C61.9329 87.1215 65.0075 87.6165 68.0556 87.3126C69.1858 87.1812 70.3086 86.9918 71.4194 86.7452C74.0709 86.1982 76.7503 85.6029 79.1591 84.3656C83.2673 82.2552 86.223 78.4834 89.0457 74.8271C89.5825 74.1309 90.1236 73.4289 90.5082 72.6333C90.8841 71.8742 91.1108 71.0523 91.3638 70.245C92.2194 67.5232 93.423 64.8132 93.3104 61.9642C93.315 61.623 93.2477 61.2846 93.113 60.9711C92.9989 60.7371 92.8205 60.5324 92.7196 60.2969C92.5411 59.8757 92.6216 59.3887 92.4958 58.9484C92.1463 57.7199 90.5316 57.4859 89.2534 57.4962L88.8439 64.7049C88.781 65.7872 88.6655 66.9879 87.8596 67.7133C87.5149 68.0099 87.0846 68.189 86.6312 68.2245C86.1778 68.26 85.7249 68.1501 85.3382 67.9108C84.4783 67.3536 84.3569 66.381 84.3627 65.4494C84.3715 64.2793 84.2764 63.2073 83.9035 62.0856C83.1313 59.7587 81.7009 57.717 80.6157 55.5305Z" fill="#192534"/>
<path d="M81.1247 76.0731C86.2172 78.6545 91.3389 81.2548 95.8962 84.6918C96.9492 85.4845 97.9729 86.3239 99.0859 87.0318C102.276 89.0589 106.233 90.0461 108.695 92.9126C109.212 93.5137 109.651 94.1894 110.248 94.71C110.766 95.1353 111.345 95.4804 111.965 95.7338C113.942 96.6065 116.084 97.0459 118.245 97.0223C118.811 97.015 119.393 96.9726 119.902 96.7298C121.272 96.0658 121.584 94.2874 121.723 92.7707C121.77 92.2574 121.78 91.6519 121.376 91.3331C121.158 91.162 120.87 91.1181 120.597 91.0757C116.149 90.3737 112.045 88.2325 108.329 85.6892C104.613 83.1459 101.207 80.177 97.5415 77.5605C96.253 76.6406 94.9338 75.7645 93.6146 74.8885L89.3455 72.0541C87.0874 70.555 84.7093 69.0106 82.0124 68.7283C81.8591 68.7017 81.7016 68.7122 81.5532 68.759C81.3163 68.8512 81.1846 69.0969 81.0691 69.3221C80.2779 70.8636 79.3141 72.2632 78.3444 73.6907C77.8252 74.4541 77.7667 74.6515 78.6618 75.0596C79.4676 75.4281 80.3217 75.6665 81.1247 76.0731Z" fill="#FBBEBE"/>
<path d="M91.1312 118.666C91.1894 118.666 91.2452 118.643 91.2864 118.602C91.3275 118.561 91.3506 118.505 91.3506 118.447C91.3506 118.389 91.3275 118.333 91.2864 118.292C91.2452 118.251 91.1894 118.227 91.1312 118.227C91.0731 118.227 91.0173 118.251 90.9761 118.292C90.935 118.333 90.9119 118.389 90.9119 118.447C90.9119 118.505 90.935 118.561 90.9761 118.602C91.0173 118.643 91.0731 118.666 91.1312 118.666Z" fill="black"/>
<path d="M92.7313 60.4314C100.457 60.4314 106.72 54.1683 106.72 46.4424C106.72 38.7165 100.457 32.4534 92.7313 32.4534C85.0053 32.4534 78.7422 38.7165 78.7422 46.4424C78.7422 54.1683 85.0053 60.4314 92.7313 60.4314Z" fill="#FBBEBE"/>
<path d="M81.736 51.8976C81.9847 50.6413 83.4267 50.0066 84.7035 49.9218C85.9955 49.8523 87.283 50.1245 88.4363 50.7109C89.5896 51.2973 90.5681 52.1773 91.2732 53.2622C91.5689 52.478 91.7683 51.6608 91.8669 50.8285L94.207 51.0026C94.4682 51.043 94.7353 51.0189 94.985 50.9324C95.2863 50.7978 95.4721 50.4936 95.6285 50.2011C96.6523 48.2896 97.3368 45.9437 99.2585 44.936V47.5686C99.7847 47.4662 100.28 47.2443 100.707 46.9199C101.134 46.5956 101.48 46.1775 101.72 45.698C101.852 46.4267 102.062 47.1392 102.346 47.823C102.393 47.9371 102.459 48.0629 102.577 48.0921C102.635 48.0963 102.693 48.0882 102.747 48.0683C102.802 48.0484 102.851 48.0171 102.893 47.9766C103.789 47.2966 104.6 46.5109 105.308 45.6366L108.086 50.4541C109.692 46.4 109.779 41.9025 108.333 37.7888C106.887 33.6751 104.004 30.2219 100.215 28.0644C99.5726 27.6942 98.9022 27.3749 98.2099 27.1093C96.4008 26.4278 94.4512 26.2099 92.5221 26.0782C89.7799 25.891 86.8856 25.8984 84.4783 27.2132C83.1839 27.9196 82.109 28.9609 81.0706 30.008C79.6666 31.4208 78.2625 32.9141 77.5152 34.7612C76.9989 36.0366 76.822 37.4186 76.6655 38.7846C76.5704 39.611 76.4827 40.4651 76.7181 41.2622C76.8819 41.8135 77.1905 42.3093 77.3982 42.8461C77.7434 43.7382 77.7975 44.7122 77.9306 45.66C78.2259 47.7543 78.9099 49.7751 79.9474 51.6183C80.1668 52.0088 80.4476 52.4241 80.8848 52.5236C81.3221 52.623 81.8472 52.1404 81.6161 51.7601" fill="#192534"/>
<path d="M81.736 51.8976C81.9847 50.6413 83.4267 50.0066 84.7035 49.9218C85.9955 49.8523 87.283 50.1245 88.4363 50.7109C89.5896 51.2973 90.5681 52.1773 91.2732 53.2622C91.5689 52.478 91.7683 51.6608 91.8669 50.8285L94.207 51.0026C94.4682 51.043 94.7353 51.0189 94.985 50.9324C95.2863 50.7978 95.4721 50.4936 95.6285 50.2011C96.6523 48.2896 97.3368 45.9437 99.2585 44.936V47.5686C99.7847 47.4662 100.28 47.2443 100.707 46.9199C101.134 46.5956 101.48 46.1775 101.72 45.698C101.852 46.4267 102.062 47.1392 102.346 47.823C102.393 47.9371 102.459 48.0629 102.577 48.0921C102.635 48.0963 102.693 48.0882 102.747 48.0683C102.802 48.0484 102.851 48.0171 102.893 47.9766C103.789 47.2966 104.6 46.5109 105.308 45.6366L108.086 50.4541C109.692 46.4 109.779 41.9025 108.333 37.7888C106.887 33.6751 104.004 30.2219 100.215 28.0644C99.5726 27.6942 98.9022 27.3749 98.2099 27.1093C96.4008 26.4278 94.4512 26.2099 92.5221 26.0782C89.7799 25.891 86.8856 25.8984 84.4783 27.2132C83.1839 27.9196 82.109 28.9609 81.0706 30.008C79.6666 31.4208 78.2625 32.9141 77.5152 34.7612C76.9989 36.0366 76.822 37.4186 76.6655 38.7846C76.5704 39.611 76.4827 40.4651 76.7181 41.2622C76.8819 41.8135 77.1905 42.3093 77.3982 42.8461C77.7434 43.7382 77.7975 44.7123 77.9306 45.66C78.2259 47.7543 78.9099 49.7751 79.9474 51.6183C80.1668 52.0088 80.4476 52.4241 80.8848 52.5236C81.3221 52.623 81.8472 52.1404 81.6161 51.7601" stroke="black" stroke-miterlimit="10"/>
<path d="M65.6804 65.3236C66.245 66.8753 67.6636 67.9283 69.0091 68.8877L72.5192 71.3916C73.4523 72.057 74.4102 72.7473 75.0172 73.7185C74.1294 74.0548 73.7243 75.1956 74.0154 76.0994C74.3064 77.0033 75.1415 77.6512 76.0512 77.9437C76.9609 78.2362 77.9261 78.226 78.8753 78.1718C79.9649 78.1119 81.1057 77.9803 82.0051 77.3616L80.0293 76.1448C79.5086 75.8216 78.9104 75.3068 79.1005 74.7261L81.1846 74.7057C81.404 74.7057 81.6424 74.6954 81.8165 74.5594C81.9905 74.4234 82.0505 74.2143 82.1236 74.0154C82.4335 73.2111 82.9624 72.5097 83.6505 71.9906C84.3386 71.4716 85.1584 71.1556 86.0168 71.0786C86.5316 71.0406 87.124 71.0625 87.4793 70.6793C87.7104 70.4249 87.7602 70.0592 87.8011 69.7185C87.8786 69.0691 87.9547 68.4022 87.826 67.766C87.6973 67.1298 87.3258 66.498 86.7291 66.2303C86.2903 66.0314 85.7828 66.0504 85.3031 65.9861C83.0962 65.6936 81.5664 63.6929 80.3817 61.8077C79.1971 59.9225 77.9261 57.8369 75.8143 57.1349C75.1548 56.9375 74.4711 56.8327 73.7828 56.8234C72.2603 56.7605 70.6925 56.8848 69.306 57.5166C66.7218 58.694 64.6742 62.5623 65.6804 65.3236Z" fill="#5953C4"/>
<path opacity="0.1" d="M108.099 47.8508L105.321 43.0333C104.613 43.9079 103.802 44.6937 102.906 45.3733C102.865 45.4143 102.815 45.446 102.761 45.4662C102.706 45.4864 102.648 45.4946 102.59 45.4903C102.472 45.4611 102.406 45.3353 102.359 45.2212C102.075 44.5368 101.865 43.8239 101.733 43.0947C101.494 43.5746 101.147 43.993 100.721 44.3176C100.294 44.6422 99.798 44.8643 99.2717 44.9667V42.3342C97.3499 43.3448 96.6713 45.6907 95.6417 47.5993C95.4852 47.8918 95.2994 48.1916 94.9982 48.3305C94.7484 48.417 94.4813 48.4411 94.2201 48.4007L91.8801 48.2267C91.7814 49.059 91.582 49.8762 91.2863 50.6603C90.5812 49.5755 89.6028 48.6955 88.4494 48.1091C87.2961 47.5227 86.0086 47.2505 84.7166 47.3199C83.4398 47.4048 81.9978 48.0395 81.7492 49.2958L81.6249 49.1583C81.8603 49.54 81.3323 50.0227 80.8936 49.9232C80.4548 49.8238 80.1755 49.4084 79.9561 49.0179C78.9213 47.1727 78.2403 45.1505 77.9481 43.0552C77.815 42.1075 77.7609 41.1335 77.4157 40.2413C77.208 39.7046 76.8994 39.2088 76.7356 38.6574C76.7356 38.6384 76.7254 38.6208 76.721 38.6018C76.7079 38.7115 76.6947 38.8212 76.683 38.9309C76.5879 39.7587 76.5002 40.6113 76.7356 41.4172C76.8994 41.9686 77.208 42.4644 77.4157 42.9996C77.7609 43.8932 77.815 44.8658 77.9481 45.815C78.24 47.9099 78.921 49.9317 79.9561 51.7762C80.1755 52.1667 80.4563 52.5836 80.8936 52.683C81.3309 52.7825 81.8559 52.2998 81.6249 51.9181L81.7492 52.0541C81.9978 50.7993 83.4398 50.1631 84.7166 50.0797C86.0085 50.0097 87.2961 50.2814 88.4495 50.8676C89.6029 51.4538 90.5814 52.3337 91.2863 53.4187C91.5822 52.635 91.7816 51.8183 91.8801 50.9865L94.2201 51.1591C94.4813 51.1999 94.7485 51.1758 94.9982 51.0889C95.2994 50.9543 95.4852 50.6501 95.6417 50.3576C96.6654 48.4446 97.3499 46.1002 99.2717 45.0925V47.7251C99.798 47.6226 100.294 47.4005 100.721 47.0759C101.147 46.7513 101.494 46.3329 101.733 45.853C101.865 46.5822 102.075 47.2951 102.359 47.9795C102.406 48.0921 102.472 48.2194 102.59 48.2472C102.648 48.2521 102.706 48.2443 102.761 48.2243C102.815 48.2043 102.865 48.1727 102.906 48.1316C103.802 47.452 104.613 46.6662 105.321 45.7916L108.099 50.6091C109.102 48.0527 109.514 45.3032 109.306 42.5653C109.172 44.3777 108.765 46.1596 108.099 47.8508Z" fill="black"/>
</g>
<defs>
<clipPath id="clip0_5_314">
<rect width="160" height="118.666" fill="white"/>
</clipPath>
</defs>
</svg>
