<svg width="282" height="243" viewBox="0 0 282 243" fill="none" xmlns="http://www.w3.org/2000/svg">
<g clip-path="url(#clip0_5_479)">
<path d="M0 240.539C0 240.894 0.284882 241.178 0.639633 241.178H281.36C281.715 241.178 282 240.894 282 240.539C282 240.184 281.715 239.899 281.36 239.899H0.639633C0.284878 239.899 0 240.184 0 240.539Z" fill="#3F3C57"/>
<path d="M91.591 25.8248L94.6437 39.7535L88.1505 59.141L77.6891 38.3107L79.1406 26.2262L91.591 25.8248Z" fill="#FDB4B4"/>
<path d="M95.2109 39.0321H77.148V60.8543H95.2109V39.0321Z" fill="#5953C4"/>
<path d="M87.7831 32.8409C94.5959 32.8409 100.119 27.3187 100.119 20.5066C100.119 13.6945 94.5959 8.17229 87.7831 8.17229C80.9703 8.17229 75.4474 13.6945 75.4474 20.5066C75.4474 27.3187 80.9703 32.8409 87.7831 32.8409Z" fill="#FDB4B4"/>
<path d="M77.0454 29.6784C77.0454 29.6784 67.8504 12.6986 76.1408 4.52745C84.4313 -3.64368 91.0864 1.74059 91.0864 1.74059L94.8867 1.58701C94.8867 1.58701 95.6793 4.57749 96.9574 2.95862C98.2354 1.33975 100.545 7.23546 100.545 7.23546C104.831 14.9543 89.9718 16.6835 89.9718 16.6835C89.9718 16.6835 91.0448 20.1012 89.9542 20.8169C88.8635 21.5327 85.9495 24.2251 85.9495 24.2251L83.3413 26.1948L81.7913 23.8335C81.7913 23.8335 80.1722 22.5555 79.3542 23.0923C78.5363 23.6292 79.6614 30.6922 79.6614 30.6922L77.0454 29.6784Z" fill="#2E2E41"/>
<path d="M62.247 154.596L57.5308 224.939L69.1249 225.332L84.4527 155.186L62.247 154.596Z" fill="#2E2E41"/>
<path d="M90.348 154.203L85.6318 224.546L97.2259 224.939L112.554 154.793L90.348 154.203Z" fill="#2E2E41"/>
<path d="M59.4071 170.668L65.5792 94.0542L56.114 54.1598C55.298 48.2295 59.035 42.6182 64.8026 41.0881L74.0644 38.6312L78.1638 34.5321L87.4881 55.1209L93.3115 34.5478L97.8532 37.8505L111.323 43.7925L111.317 43.9316L109.156 92.1238L113.979 169.985L113.765 169.988L59.4071 170.668Z" fill="#E8E9EA"/>
<path d="M96.4815 224.14L99.8386 234.161C99.8386 234.161 112.972 235.946 113.177 240.012C113.381 244.077 95.3272 241.724 84.7556 242.255C74.184 242.786 82.984 231.34 82.984 231.34L84.1106 224.762L96.4815 224.14Z" fill="#2E2E41"/>
<path d="M69.0655 223.419L72.4226 233.439C72.4226 233.439 85.5564 235.225 85.7608 239.29C85.9651 243.356 67.9112 241.003 57.3396 241.534C46.7679 242.065 55.568 230.618 55.568 230.618L56.6945 224.04L69.0655 223.419Z" fill="#2E2E41"/>
<path d="M52.6866 129.979C52.5442 128.003 52.8773 126.022 53.6579 124.201L51.1523 103.65L60.9672 102.744L62.4517 123.689C63.4381 125.406 63.9988 127.334 64.087 129.312C64.3756 134.261 62.0575 138.42 58.909 138.603C55.7605 138.787 52.9745 134.926 52.6866 129.979Z" fill="#FDB4B4"/>
<path d="M114.851 132.996C114.73 131.018 115.085 129.041 115.885 127.229L113.604 106.652L123.428 105.853L124.684 126.812C125.652 128.54 126.192 130.474 126.258 132.453C126.493 137.405 124.129 141.538 120.979 141.687C117.829 141.837 115.085 137.945 114.851 132.996Z" fill="#FDB4B4"/>
<path d="M51.112 121.737L51.0788 121.56L45.9636 94.1176L52.0077 49.4307C52.547 45.4411 56.1099 42.5671 60.1275 42.8883C62.2257 43.0563 64.1082 44.0513 65.4288 45.6905C66.7491 47.3297 67.3204 49.381 67.0373 51.4666L62.4883 84.9812L65.3524 120.828L51.112 121.737Z" fill="#E8E9EA"/>
<path d="M111.82 121.093L101.536 52.4529C101.001 50.4402 101.314 48.3339 102.421 46.544C103.528 44.7541 105.273 43.5337 107.335 43.1074C111.279 42.2918 115.173 44.7023 116.202 48.5941L126.082 120.231L111.82 121.093Z" fill="#E8E9EA"/>
<path d="M87.7897 61.3953C88.487 61.3953 89.0523 60.8301 89.0523 60.1329C89.0523 59.4357 88.487 58.8705 87.7897 58.8705C87.0924 58.8705 86.5272 59.4357 86.5272 60.1329C86.5272 60.8301 87.0924 61.3953 87.7897 61.3953Z" fill="#D6D7D8"/>
<path d="M87.7897 70.9538C88.487 70.9538 89.0523 70.3886 89.0523 69.6914C89.0523 68.9942 88.487 68.4289 87.7897 68.4289C87.0924 68.4289 86.5272 68.9942 86.5272 69.6914C86.5272 70.3886 87.0924 70.9538 87.7897 70.9538Z" fill="#D6D7D8"/>
<path d="M87.7897 80.5123C88.487 80.5123 89.0523 79.9471 89.0523 79.2499C89.0523 78.5526 88.487 77.9874 87.7897 77.9874C87.0924 77.9874 86.5272 78.5526 86.5272 79.2499C86.5272 79.9471 87.0924 80.5123 87.7897 80.5123Z" fill="#D6D7D8"/>
<path d="M87.7897 90.0708C88.487 90.0708 89.0523 89.5056 89.0523 88.8083C89.0523 88.1111 88.487 87.5459 87.7897 87.5459C87.0924 87.5459 86.5272 88.1111 86.5272 88.8083C86.5272 89.5056 87.0924 90.0708 87.7897 90.0708Z" fill="#D6D7D8"/>
<path d="M87.7897 99.6293C88.487 99.6293 89.0523 99.064 89.0523 98.3668C89.0523 97.6696 88.487 97.1044 87.7897 97.1044C87.0924 97.1044 86.5272 97.6696 86.5272 98.3668C86.5272 99.064 87.0924 99.6293 87.7897 99.6293Z" fill="#D6D7D8"/>
<path d="M87.7897 109.188C88.487 109.188 89.0523 108.623 89.0523 107.925C89.0523 107.228 88.487 106.663 87.7897 106.663C87.0924 106.663 86.5272 107.228 86.5272 107.925C86.5272 108.623 87.0924 109.188 87.7897 109.188Z" fill="#D6D7D8"/>
<path d="M87.7897 118.746C88.487 118.746 89.0523 118.181 89.0523 117.484C89.0523 116.787 88.487 116.221 87.7897 116.221C87.0924 116.221 86.5272 116.787 86.5272 117.484C86.5272 118.181 87.0924 118.746 87.7897 118.746Z" fill="#D6D7D8"/>
<path d="M87.7897 128.305C88.487 128.305 89.0523 127.739 89.0523 127.042C89.0523 126.345 88.487 125.78 87.7897 125.78C87.0924 125.78 86.5272 126.345 86.5272 127.042C86.5272 127.739 87.0924 128.305 87.7897 128.305Z" fill="#D6D7D8"/>
<path d="M87.7912 135.699L63.9018 132.515L63.4417 132.454L51.2324 104.306L43.9613 87.5465H62.9003L87.7912 135.699Z" fill="#5953C4"/>
<path d="M183.575 28.8872L198.764 20.5675V44.3379H181.198L183.575 28.8872Z" fill="#2E2E41"/>
<path d="M202.02 34.1868L203.422 45.8566L193.319 65.9721L187.049 47.2499L189.997 33.7991L202.02 34.1868Z" fill="#FDB4B4"/>
<path d="M203.944 46.5533H186.501V67.6267H203.944V46.5533Z" fill="#5953C4"/>
<path d="M218.334 158.152L222.888 226.081L211.692 226.461L196.89 158.721L218.334 158.152Z" fill="#2E2E41"/>
<path d="M191.197 157.772L195.752 225.702L184.555 226.081L169.753 158.342L191.197 157.772Z" fill="#2E2E41"/>
<path d="M230.163 172.559L229.896 172.559L158.57 172.326L158.634 172.073L176.972 99.4272L172.378 62.7653C171.508 55.8183 175.227 49.252 181.634 46.4261L183.946 45.4061L188.34 42.2113L193.96 62.0697L202.961 42.1958L206.926 46.1598L215.868 48.532C221.441 50.0104 225.052 55.4325 224.267 61.1442L224.257 61.184L210.602 100.144L230.163 172.559Z" fill="#E8E9EA"/>
<path d="M185.274 225.309L197.221 225.91L198.308 232.262C198.308 232.262 206.807 243.316 196.598 242.803C186.389 242.29 168.954 244.563 169.152 240.637C169.349 236.711 182.032 234.986 182.032 234.986L185.274 225.309Z" fill="#2E2E41"/>
<path d="M211.749 224.613L223.696 225.213L224.784 231.565C224.784 231.565 233.282 242.619 223.073 242.106C212.864 241.593 195.43 243.866 195.627 239.94C195.824 236.014 208.507 234.29 208.507 234.29L211.749 224.613Z" fill="#2E2E41"/>
<path d="M222.689 133.683C222.411 138.46 219.721 142.189 216.68 142.011C213.64 141.834 211.401 137.818 211.68 133.039C211.765 131.129 212.307 129.266 213.259 127.608L214.693 107.382L224.171 108.257L221.751 128.104C222.505 129.862 222.827 131.775 222.689 133.683Z" fill="#FDB4B4"/>
<path d="M173.983 131.866C173.603 136.636 170.834 140.307 167.798 140.065C164.762 139.823 162.609 135.76 162.99 130.989C163.115 129.08 163.696 127.23 164.684 125.592L166.548 105.402L176.005 106.478L173.164 126.268C173.88 128.042 174.161 129.962 173.983 131.866Z" fill="#FDB4B4"/>
<path d="M224.216 125.731L210.45 124.853L210.467 124.646L213.217 90.2292L208.824 57.8654C208.55 55.8495 209.103 53.8667 210.379 52.2823C211.655 50.6978 213.475 49.736 215.503 49.5736C219.387 49.2675 222.83 52.0412 223.352 55.8974L229.188 99.0521L229.182 99.0843L224.216 125.731Z" fill="#E8E9EA"/>
<path d="M176.274 124.413L162.487 123.579L162.517 123.362L172.025 54.4164C173.024 50.6298 176.79 48.3007 180.601 49.0886C182.593 49.5006 184.28 50.6803 185.35 52.4105C186.42 54.1408 186.723 56.1765 186.202 58.1431L176.274 124.413Z" fill="#E8E9EA"/>
<path d="M193.668 68.1491C194.341 68.1491 194.887 67.6033 194.887 66.93C194.887 66.2567 194.341 65.7109 193.668 65.7109C192.994 65.7109 192.448 66.2567 192.448 66.93C192.448 67.6033 192.994 68.1491 193.668 68.1491Z" fill="#D6D7D8"/>
<path d="M193.668 77.3796C194.341 77.3796 194.887 76.8338 194.887 76.1605C194.887 75.4872 194.341 74.9414 193.668 74.9414C192.994 74.9414 192.448 75.4872 192.448 76.1605C192.448 76.8338 192.994 77.3796 193.668 77.3796Z" fill="#D6D7D8"/>
<path d="M193.668 86.6101C194.341 86.6101 194.887 86.0643 194.887 85.391C194.887 84.7177 194.341 84.1719 193.668 84.1719C192.994 84.1719 192.448 84.7177 192.448 85.391C192.448 86.0643 192.994 86.6101 193.668 86.6101Z" fill="#D6D7D8"/>
<path d="M193.668 95.8406C194.341 95.8406 194.887 95.2948 194.887 94.6215C194.887 93.9482 194.341 93.4024 193.668 93.4024C192.994 93.4024 192.448 93.9482 192.448 94.6215C192.448 95.2948 192.994 95.8406 193.668 95.8406Z" fill="#D6D7D8"/>
<path d="M193.668 105.071C194.341 105.071 194.887 104.525 194.887 103.852C194.887 103.179 194.341 102.633 193.668 102.633C192.994 102.633 192.448 103.179 192.448 103.852C192.448 104.525 192.994 105.071 193.668 105.071Z" fill="#D6D7D8"/>
<path d="M193.668 114.302C194.341 114.302 194.887 113.756 194.887 113.082C194.887 112.409 194.341 111.863 193.668 111.863C192.994 111.863 192.448 112.409 192.448 113.082C192.448 113.756 192.994 114.302 193.668 114.302Z" fill="#D6D7D8"/>
<path d="M193.668 123.532C194.341 123.532 194.887 122.986 194.887 122.313C194.887 121.64 194.341 121.094 193.668 121.094C192.994 121.094 192.448 121.64 192.448 122.313C192.448 122.986 192.994 123.532 193.668 123.532Z" fill="#D6D7D8"/>
<path d="M193.668 132.763C194.341 132.763 194.887 132.217 194.887 131.543C194.887 130.87 194.341 130.324 193.668 130.324C192.994 130.324 192.448 130.87 192.448 131.543C192.448 132.217 192.994 132.763 193.668 132.763Z" fill="#D6D7D8"/>
<path d="M195.519 40.1426C201.817 40.1426 206.923 35.0373 206.923 28.7396C206.923 22.4418 201.817 17.3365 195.519 17.3365C189.22 17.3365 184.114 22.4418 184.114 28.7396C184.114 35.0373 189.22 40.1426 195.519 40.1426Z" fill="#FDB4B4"/>
<path d="M201.495 15.4279C202.042 16.5392 201.175 17.9274 200.028 18.3946C198.881 18.8618 197.585 18.6725 196.362 18.478C195.139 18.2835 193.841 18.0991 192.698 18.5746C191.218 19.1899 190.384 20.7332 189.665 22.1654C188.323 24.839 186.982 27.5126 185.64 30.1862C184.984 31.4925 184.314 32.8575 184.301 34.3189C184.278 37.0015 186.407 39.1454 187.552 41.5715C188.946 44.5254 188.831 48.1454 187.252 51.0049C185.673 53.8644 182.671 55.8904 179.428 56.2845C178.575 56.3882 177.672 56.3769 176.904 55.9894C176.137 55.6018 175.552 54.7554 175.694 53.9078C175.972 52.25 178.505 51.8627 178.97 50.2474C179.213 49.4043 178.783 48.5038 178.203 47.8452C177.623 47.1866 176.89 46.6729 176.337 45.9917C175.062 44.4209 174.977 41.996 176.139 40.3398C176.822 39.3665 177.879 38.6433 178.32 37.5392C178.696 36.5981 178.56 35.5402 178.417 34.5368C178.234 33.2474 178.051 31.9579 177.868 30.6685C177.654 29.1641 177.444 27.6058 177.866 26.1462C178.834 22.8013 182.611 21.2303 184.826 18.5435C185.855 17.295 186.548 15.7935 187.604 14.5674C189.376 12.5099 192.166 11.3749 194.871 11.6108C197.577 11.8468 200.128 13.4476 201.517 15.7808" fill="#2E2E41"/>
<path d="M199.695 15.6388C199.138 15.8381 198.931 16.5637 199.091 17.1332C199.252 17.7027 199.672 18.1552 200.056 18.605C204.403 23.6924 205.414 31.3875 202.527 37.4247C201.759 39.0305 200.737 40.5418 200.322 42.2729C200.021 43.5325 200.037 44.9141 199.338 46.0045C198.627 47.1147 197.217 47.8585 197.078 49.1697C196.988 50.0111 197.501 50.8284 198.189 51.3217C198.876 51.815 199.716 52.0407 200.542 52.2248C202.689 52.7031 204.884 52.9642 207.083 53.0029C207.8 53.0155 208.54 53 209.198 52.7144C209.856 52.4287 210.417 51.8092 210.425 51.0922C210.43 50.5288 210.105 50.0089 210.064 49.4469C209.94 47.7629 212.206 46.8671 212.647 45.2373C212.938 44.1657 212.366 43.0631 211.757 42.1351C211.147 41.207 210.452 40.2325 210.467 39.1225C210.481 38.0598 211.148 37.124 211.408 36.0933C211.766 34.6677 211.326 33.1765 210.889 31.7729C210.517 30.5796 210.146 29.3863 209.775 28.193C209.38 26.9245 208.985 25.656 208.59 24.3874C207.901 22.1728 207.177 19.8941 205.685 18.1179C204.194 16.3417 201.722 15.1775 199.519 15.9027" fill="#2E2E41"/>
<path d="M207.466 59.8258L206.684 59.598C208.313 54.0149 204.801 43.5961 204.766 43.4916L205.536 43.2288C205.686 43.6659 209.166 53.9983 207.466 59.8258Z" fill="#3F3C57"/>
<path d="M207.075 66.2386C208.953 66.2386 210.476 64.7161 210.476 62.8379C210.476 60.9598 208.953 59.4372 207.075 59.4372C205.197 59.4372 203.674 60.9598 203.674 62.8379C203.674 64.7161 205.197 66.2386 207.075 66.2386Z" fill="#3F3C57"/>
<path d="M184.728 74.8774H182.665C182.44 74.8774 182.258 74.6952 182.258 74.4704C182.258 74.2456 182.44 74.0633 182.665 74.0633H184.728C185.296 74.0633 185.83 73.8419 186.232 73.4396C186.633 73.0375 186.854 72.503 186.852 71.9349L186.827 59.2317C186.827 56.4721 184.583 54.2276 181.824 54.2276C179.064 54.2276 176.819 56.4721 176.819 59.2309L176.844 71.1212C176.847 72.2812 177.793 73.2321 178.953 73.241L180.368 73.2517C180.593 73.2535 180.774 73.437 180.772 73.662C180.771 73.8856 180.589 74.0659 180.365 74.0659H180.362L178.946 74.0551C177.342 74.0428 176.033 72.7272 176.03 71.1228L176.005 59.2317C176.005 56.0233 178.615 53.4135 181.824 53.4135C185.032 53.4135 187.642 56.0233 187.642 59.2309L187.667 71.9333C187.668 72.7192 187.363 73.4584 186.808 74.0146C186.253 74.5709 185.514 74.8774 184.728 74.8774Z" fill="#3F3C57"/>
<path d="M180.365 75.1016C181.162 75.1016 181.808 74.4557 181.808 73.6588C181.808 72.862 181.162 72.216 180.365 72.216C179.569 72.216 178.922 72.862 178.922 73.6588C178.922 74.4557 179.569 75.1016 180.365 75.1016Z" fill="#3F3C57"/>
<path d="M182.665 75.9132C183.462 75.9132 184.108 75.2672 184.108 74.4704C184.108 73.6736 183.462 73.0276 182.665 73.0276C181.868 73.0276 181.222 73.6736 181.222 74.4704C181.222 75.2672 181.868 75.9132 182.665 75.9132Z" fill="#3F3C57"/>
<path d="M99.3649 53.724L98.5833 53.4962C100.212 47.9132 96.7399 37.333 96.7045 37.2284L97.6815 37.9648C97.8306 38.4019 101.065 47.8965 99.3649 53.724Z" fill="#3F3C57"/>
<path d="M71.8887 54.7159L72.6703 54.4882C71.0419 48.9051 74.5532 38.4862 74.5886 38.3817L73.7525 38.9417C73.6034 39.3788 70.1887 48.8884 71.8887 54.7159Z" fill="#3F3C57"/>
<path d="M98.9741 60.1368C100.852 60.1368 102.375 58.6143 102.375 56.7361C102.375 54.858 100.852 53.3354 98.9741 53.3354C97.0958 53.3354 95.5731 54.858 95.5731 56.7361C95.5731 58.6143 97.0958 60.1368 98.9741 60.1368Z" fill="#3F3C57"/>
<path d="M75.5146 75.6289H73.452C73.227 75.6289 73.0449 75.4466 73.0449 75.2218C73.0449 74.997 73.227 74.8147 73.452 74.8147H75.5146C76.0831 74.8147 76.6171 74.5933 77.0186 74.191C77.4198 73.7889 77.6404 73.2544 77.6392 72.6864L77.6142 59.9832C77.6142 57.2235 75.3695 54.9791 72.6103 54.9791C69.8512 54.9791 67.6061 57.2235 67.6061 59.9824L67.6311 71.8726C67.6335 73.0326 68.5794 73.9835 69.7395 73.9924L71.1552 74.0032C71.3799 74.005 71.5607 74.1884 71.5592 74.4134C71.5576 74.637 71.3755 74.8173 71.152 74.8173H71.1489L69.7331 74.8066C68.1285 74.7943 66.8201 73.4786 66.8169 71.8742L66.7919 59.9832C66.7919 56.7747 69.4019 54.1649 72.6103 54.1649C75.8184 54.1649 78.4284 56.7747 78.4284 59.9824L78.4535 72.6848C78.4551 73.4707 78.1501 74.2099 77.5947 74.766C77.0397 75.3224 76.3006 75.6289 75.5146 75.6289Z" fill="#3F3C57"/>
<path d="M71.1522 75.8531C71.9492 75.8531 72.5952 75.2071 72.5952 74.4103C72.5952 73.6134 71.9492 72.9675 71.1522 72.9675C70.3553 72.9675 69.7093 73.6134 69.7093 74.4103C69.7093 75.2071 70.3553 75.8531 71.1522 75.8531Z" fill="#3F3C57"/>
<path d="M73.4519 76.6646C74.2488 76.6646 74.8949 76.0187 74.8949 75.2219C74.8949 74.425 74.2488 73.7791 73.4519 73.7791C72.655 73.7791 72.009 74.425 72.009 75.2219C72.009 76.0187 72.655 76.6646 73.4519 76.6646Z" fill="#3F3C57"/>
</g>
<defs>
<clipPath id="clip0_5_479">
<rect width="282" height="243" fill="white"/>
</clipPath>
</defs>
</svg>
