<svg width="150" height="157" viewBox="0 0 150 157" fill="none" xmlns="http://www.w3.org/2000/svg">
<g clip-path="url(#clip0_7_612)">
<path d="M60.5813 126.225C60.3014 125.753 59.0908 126.258 58.8682 125.83C58.6464 125.403 59.7713 124.753 60.4139 123.268C60.5298 123 61.2601 121.312 60.7194 120.792C59.6947 119.804 55.0053 123.878 53.3643 122.545C53.0041 122.253 52.7525 121.668 51.6625 120.72C51.2289 120.343 50.9667 120.173 50.7129 120.236C50.3528 120.326 50.3243 120.808 49.9382 121.755C49.3591 123.176 49.0166 123.091 48.6793 124.224C48.4288 125.066 48.486 125.555 48.1913 125.651C47.7743 125.786 47.3904 124.893 46.8619 124.973C46.3225 125.054 45.9964 126.094 45.8935 126.872C45.7002 128.332 46.2365 129.296 46.5338 130.309C46.8568 131.411 47.0485 133.085 46.3025 135.456L38.9187 156.26C40.5488 151.991 45.2688 140.289 47.2521 135.94C47.8247 134.685 48.4568 133.412 49.7549 132.909C51.0046 132.425 52.721 132.714 54.9091 132.187C55.1646 132.125 55.8738 131.945 55.963 131.528C56.0368 131.183 55.6197 130.99 55.6838 130.668C55.7698 130.234 56.59 130.229 57.5981 129.729C58.3088 129.377 58.7517 128.958 59.1325 128.597C59.2473 128.489 60.9538 126.853 60.5813 126.225Z" fill="#F2F2F2"/>
<path d="M31.5311 137.177C31.2187 137.178 31.1174 137.918 30.843 137.904C30.5696 137.89 30.575 137.15 30.0315 136.406C29.9335 136.272 29.3158 135.427 28.9042 135.542C28.124 135.76 28.7704 139.237 27.6426 139.658C27.3951 139.75 27.0358 139.705 26.2559 139.966C25.9456 140.07 25.7864 140.15 25.7443 140.293C25.6845 140.495 25.9128 140.648 26.2664 141.111C26.7968 141.805 26.6559 141.949 27.115 142.441C27.4558 142.807 27.7125 142.92 27.6742 143.092C27.6201 143.336 27.0712 143.267 26.9579 143.549C26.8424 143.838 27.2584 144.298 27.6107 144.573C28.2717 145.089 28.8994 145.104 29.4825 145.25C30.1162 145.409 30.9935 145.799 31.9418 146.849L40.0221 156.475C38.3972 154.444 34.0155 148.75 32.4534 146.522C32.0025 145.879 31.56 145.201 31.6878 144.419C31.8109 143.666 32.4479 142.907 32.8206 141.681C32.8641 141.538 32.9802 141.138 32.8012 140.974C32.6532 140.838 32.4384 140.987 32.2984 140.863C32.1106 140.695 32.3446 140.291 32.3902 139.652C32.4223 139.202 32.3443 138.864 32.2773 138.573C32.2571 138.485 31.9468 137.176 31.5311 137.177Z" fill="#F2F2F2"/>
<path d="M37.7622 138.576L37.5741 136.896L37.66 136.769C38.0579 136.18 38.2607 135.605 38.2631 135.059C38.2635 134.972 38.2595 134.885 38.2554 134.797C38.2392 134.446 38.2189 134.011 38.446 133.503C38.5734 133.22 38.9311 132.565 39.4689 132.646C39.6137 132.666 39.7232 132.732 39.8063 132.81C39.8185 132.791 39.8311 132.771 39.8444 132.75C40.0119 132.495 40.1445 132.385 40.2723 132.28C40.3704 132.199 40.4718 132.115 40.6308 131.917C40.7006 131.831 40.7549 131.754 40.8008 131.69C40.9399 131.496 41.1216 131.265 41.442 131.269C41.7843 131.285 41.9635 131.569 42.0823 131.756C42.2945 132.09 42.3906 132.331 42.4542 132.491C42.4774 132.549 42.5037 132.615 42.5171 132.635C42.6274 132.797 43.5241 132.646 43.862 132.591C44.6208 132.464 45.2774 132.354 45.5479 132.833C45.7418 133.175 45.5978 133.628 45.1071 134.214C44.9542 134.397 44.7915 134.536 44.6472 134.644C44.7668 134.716 44.8739 134.825 44.9173 134.997C45.0195 135.404 44.6695 135.812 43.8774 136.211C43.6807 136.311 43.4159 136.444 43.0448 136.508C42.87 136.538 42.7126 136.546 42.578 136.55C42.5751 136.628 42.5569 136.712 42.5094 136.799C42.3703 137.054 42.0807 137.176 41.6443 137.147C41.1641 137.122 40.7687 137.03 40.4199 136.95C40.1154 136.88 39.853 136.821 39.6469 136.834C39.2649 136.865 38.9704 137.171 38.6249 137.568L37.7622 138.576Z" fill="#F2F2F2"/>
<path d="M38.6352 128.574L37.058 129.182L36.913 129.131C36.2425 128.896 35.6347 128.845 35.1061 128.982C35.022 129.003 34.9391 129.029 34.8546 129.056C34.5198 129.16 34.1036 129.29 33.5548 129.199C33.2487 129.148 32.524 128.968 32.466 128.427C32.4489 128.282 32.4855 128.159 32.5397 128.059C32.5178 128.052 32.4958 128.045 32.472 128.038C32.1824 127.94 32.0428 127.84 31.9084 127.743C31.805 127.669 31.6985 127.592 31.4667 127.488C31.3651 127.443 31.2776 127.41 31.2039 127.381C30.9811 127.296 30.7114 127.179 30.6341 126.868C30.563 126.533 30.7913 126.288 30.9424 126.125C31.2119 125.835 31.4205 125.681 31.5589 125.579C31.6096 125.542 31.6664 125.5 31.6827 125.482C31.8116 125.334 31.4374 124.505 31.2984 124.192C30.9835 123.49 30.711 122.883 31.1054 122.5C31.3873 122.225 31.8616 122.25 32.5534 122.576C32.7687 122.677 32.9441 122.799 33.0859 122.912C33.1246 122.778 33.2033 122.646 33.3587 122.561C33.7266 122.359 34.21 122.594 34.797 123.259C34.9434 123.424 35.1392 123.646 35.2953 123.989C35.3687 124.15 35.4157 124.301 35.4538 124.43C35.5298 124.413 35.616 124.409 35.712 124.433C35.9945 124.503 36.1856 124.752 36.268 125.181C36.3655 125.652 36.3772 126.058 36.388 126.416C36.3977 126.728 36.407 126.997 36.4726 127.193C36.5993 127.554 36.9698 127.762 37.4412 127.995L38.6352 128.574Z" fill="#F2F2F2"/>
<path d="M37.7622 123.625L37.5741 121.945L37.66 121.818C38.0579 121.229 38.2607 120.654 38.2631 120.108C38.2635 120.021 38.2595 119.934 38.2554 119.846C38.2392 119.496 38.2189 119.06 38.446 118.552C38.5734 118.269 38.9311 117.614 39.4689 117.695C39.6137 117.715 39.7232 117.782 39.8063 117.86C39.8185 117.84 39.8311 117.821 39.8444 117.8C40.0119 117.544 40.1445 117.435 40.2723 117.329C40.3704 117.248 40.4718 117.164 40.6308 116.966C40.7006 116.88 40.7549 116.803 40.8008 116.739C40.9399 116.546 41.1216 116.314 41.442 116.318C41.7843 116.335 41.9635 116.618 42.0823 116.805C42.2945 117.139 42.3906 117.38 42.4542 117.54C42.4774 117.598 42.5037 117.664 42.5171 117.684C42.6274 117.847 43.5241 117.695 43.862 117.64C44.6208 117.513 45.2774 117.404 45.5479 117.882C45.7418 118.225 45.5978 118.677 45.1071 119.264C44.9542 119.446 44.7915 119.585 44.6472 119.694C44.7668 119.765 44.8739 119.874 44.9173 120.046C45.0195 120.454 44.6695 120.862 43.8774 121.261C43.6807 121.36 43.4159 121.493 43.0448 121.558C42.87 121.588 42.7126 121.595 42.578 121.599C42.5751 121.677 42.5569 121.761 42.5094 121.848C42.3703 122.103 42.0807 122.225 41.6443 122.196C41.1641 122.171 40.7687 122.079 40.4199 121.999C40.1154 121.929 39.853 121.87 39.6469 121.884C39.2649 121.914 38.9704 122.22 38.6249 122.617L37.7622 123.625Z" fill="#F2F2F2"/>
<path d="M39.481 156.233L39.129 156.012L38.7186 156.059C38.7121 156.021 38.6898 155.933 38.6561 155.796C38.4724 155.045 37.9123 152.759 37.4451 149.16C37.119 146.647 36.9345 144.063 36.8964 141.48C36.8582 138.892 36.9807 136.933 37.0789 135.359C37.1531 134.171 37.2431 133.041 37.3315 131.939C37.5668 128.996 37.7886 126.217 37.6235 123.139C37.587 122.452 37.5104 121.022 36.6749 119.5C36.1903 118.618 35.5227 117.834 34.6905 117.173L35.208 116.522C36.1266 117.254 36.8651 118.122 37.4033 119.101C38.3296 120.789 38.4132 122.347 38.4533 123.095C38.6212 126.227 38.397 129.034 38.1593 132.005C38.0717 133.102 37.9816 134.228 37.9078 135.411C37.8105 136.971 37.6892 138.913 37.727 141.467C37.7643 144.019 37.9468 146.571 38.2684 149.053C38.7299 152.607 39.2819 154.859 39.4632 155.598C39.5597 155.993 39.58 156.076 39.481 156.233Z" fill="#F2F2F2"/>
<path d="M33.1672 118.492C33.1331 118.492 33.0986 118.491 33.0638 118.489C32.3564 118.451 31.7015 118.027 31.1166 117.231C30.8425 116.856 30.7021 116.429 30.4223 115.576C30.3789 115.445 30.168 114.778 30.0398 113.861C29.9559 113.261 29.9664 113.011 30.0853 112.789C30.2171 112.543 30.4304 112.371 30.6705 112.255C30.66 112.175 30.6685 112.093 30.703 112.01C30.8445 111.663 31.2209 111.709 31.4245 111.731C31.5275 111.744 31.656 111.761 31.7947 111.753C32.0129 111.743 32.1302 111.678 32.3078 111.581C32.4777 111.487 32.689 111.371 33.0025 111.307C33.6206 111.178 34.1385 111.353 34.3093 111.411C35.2076 111.71 35.6505 112.409 36.1631 113.217C36.2653 113.38 36.6161 113.97 36.8477 114.78C37.0148 115.364 36.9913 115.623 36.941 115.816C36.8388 116.213 36.5975 116.44 35.9846 116.941C35.3447 117.466 35.0235 117.729 34.7477 117.889C34.1057 118.259 33.7025 118.492 33.1672 118.492Z" fill="#F2F2F2"/>
<path d="M72.0748 154.811L74.2499 154.811L75.2846 146.421L72.0743 146.421L72.0748 154.811Z" fill="#FFB6B6"/>
<path d="M79.527 154.762C79.5948 154.876 79.6305 155.244 79.6305 155.377C79.6305 155.784 79.3 156.115 78.8923 156.115H72.1561C71.878 156.115 71.6525 155.889 71.6525 155.611V155.331C71.6525 155.331 71.3193 154.488 72.0053 153.449C72.0053 153.449 72.858 154.262 74.1321 152.988L74.5079 152.308L77.2276 154.297L78.7351 154.482C79.065 154.523 79.3574 154.476 79.527 154.762Z" fill="#2F2E41"/>
<path d="M65.4457 154.811L67.6208 154.811L68.6556 146.421L65.4453 146.421L65.4457 154.811Z" fill="#FFB6B6"/>
<path d="M72.898 154.762C72.9657 154.876 73.0014 155.244 73.0014 155.377C73.0014 155.784 72.6709 156.115 72.2632 156.115H65.5271C65.2489 156.115 65.0234 155.889 65.0234 155.611V155.331C65.0234 155.331 64.6902 154.488 65.3763 153.449C65.3763 153.449 66.2289 154.262 67.5031 152.988L67.8788 152.308L70.5986 154.297L72.1061 154.482C72.4359 154.523 72.7283 154.476 72.898 154.762Z" fill="#2F2E41"/>
<path d="M74.5875 118.579L76.9077 127.564L75.7476 150.636L70.2786 151.002L69.9472 137.72L69.2843 151.393L63.6496 150.221L63.3181 120.141L74.5875 118.579Z" fill="#2F2E41"/>
<path d="M52.127 88.3282C51.3784 87.0145 50.0938 86.3359 49.2578 86.8125C48.4219 87.2891 48.3512 88.7401 49.1003 90.0541C49.3923 90.5831 49.8068 91.0345 50.309 91.3705L53.5512 96.8965L56.1119 95.3198L52.6439 90.0395C52.6107 89.436 52.4335 88.8492 52.127 88.3282Z" fill="#FFB6B6"/>
<path d="M66.8614 107.836C66.8614 107.836 63.7886 112.071 61.9092 110.558C60.0298 109.044 49.6462 92.0316 49.6462 92.0316L53.767 89.823L66.8614 107.836Z" fill="#5953C4"/>
<path d="M63.981 102.669L67.9585 96.703L71.9359 98.3603L70.9415 103.664L63.981 102.669Z" fill="#FFB6B6"/>
<path d="M64.3125 101.343L71.273 101.012L75.9133 102.338L76.9077 126.865L62.9867 125.539V112.605L60.998 105.984L64.3125 101.343Z" fill="#5953C4"/>
<path d="M75.7999 117.888C75.5553 117.175 75.4578 116.422 75.5209 115.67C75.699 113.55 75.7325 109.394 73.5709 107.517L72.3501 106.195C72.3247 106.167 72.2961 106.144 72.2702 106.117L74.2903 101.368L73.07 100.85L71.195 105.257C70.3635 104.751 69.4042 104.47 68.4121 104.47C67.2661 104.47 66.1707 104.844 65.2656 105.502L64.1221 101.313L62.8429 101.662L64.2726 106.44C64.2207 106.503 64.1639 106.561 64.1146 106.627L63.4161 107.565C63.246 107.793 63.0583 108.005 62.855 108.204C62.4262 108.624 61.5897 109.644 61.5816 111.214C61.5788 111.75 61.4685 112.281 61.3049 112.793L60.4746 115.387C60.3966 115.631 60.3355 115.879 60.2939 116.131C59.9279 118.353 58.6607 128.82 67.3211 128.611C75.3942 128.415 75.9256 123.5 75.8785 121.867C75.8683 121.513 75.9001 121.161 75.9662 120.813C76.0873 120.174 76.1962 119.044 75.7999 117.888Z" fill="#3F3D56"/>
<path d="M112.271 11.9378L113.026 23.5939L103.533 25.7721L104.194 16.3476L112.271 11.9378Z" fill="#FFB6B6"/>
<path d="M112.993 153.598L108.714 153.597L106.679 137.092L112.994 137.093L112.993 153.598Z" fill="#FFB6B6"/>
<path d="M98.3329 153.501C98.1997 153.725 98.1294 154.449 98.1294 154.71C98.1294 155.512 98.7796 156.163 99.5817 156.163H112.833C113.381 156.163 113.824 155.719 113.824 155.172V154.62C113.824 154.62 114.48 152.962 113.13 150.918C113.13 150.918 111.453 152.518 108.946 150.012L108.207 148.673L102.856 152.586L99.8908 152.951C99.242 153.031 98.6667 152.939 98.3329 153.501Z" fill="#2F2E41"/>
<path d="M124.594 153.598L120.315 153.597L118.28 137.092L124.595 137.093L124.594 153.598Z" fill="#FFB6B6"/>
<path d="M109.934 153.501C109.801 153.725 109.73 154.449 109.73 154.71C109.73 155.512 110.38 156.163 111.183 156.163H124.434C124.981 156.163 125.425 155.719 125.425 155.172V154.62C125.425 154.62 126.081 152.962 124.731 150.918C124.731 150.918 123.053 152.518 120.547 150.012L119.808 148.673L114.457 152.586L111.492 152.951C110.843 153.031 110.268 152.939 109.934 153.501Z" fill="#2F2E41"/>
<path d="M127.289 75.1586C127.289 75.1586 130.934 79.7989 130.272 82.4505C129.609 85.1022 124.968 146.089 124.968 146.089L118.339 145.758L114.362 91.0683L113.339 146.089L107.07 145.758L99.115 77.4787L127.289 75.1586Z" fill="#2F2E41"/>
<path d="M88.9636 89.9542C88.3368 92.3566 86.5892 93.9805 85.0603 93.5813C83.5315 93.1822 82.8006 90.9114 83.428 88.5082C83.6654 87.5448 84.1301 86.6523 84.7832 85.9053L87.5675 75.7599L92.3006 77.1679L89.0533 87.0201C89.2581 87.9912 89.2274 88.9973 88.9636 89.9542Z" fill="#FFB6B6"/>
<path d="M104.559 21.6106C109.79 21.6106 114.03 17.3703 114.03 12.1396C114.03 6.90899 109.79 2.6687 104.559 2.6687C99.3288 2.6687 95.0885 6.90899 95.0885 12.1396C95.0885 17.3703 99.3288 21.6106 104.559 21.6106Z" fill="#FFB6B6"/>
<path d="M103.424 24.1148L113.367 22.1261L124.305 27.7608L126.626 63.8892L129.609 77.4787L98.7836 77.8102L100.109 59.5803L98.1207 30.7439L103.424 24.1148Z" fill="#E6E6E6"/>
<path d="M101.104 31.7383C101.104 31.7383 95.8005 30.081 93.8118 33.0641C91.8231 36.0471 88.1771 62.8948 88.1771 62.8948L84.5311 83.1134L91.1602 84.1078L102.098 48.6423L101.104 31.7383Z" fill="#E6E6E6"/>
<path d="M149.341 78.3341C150.422 80.5695 150.144 82.9389 148.721 83.6264C147.299 84.3138 145.27 83.0589 144.189 80.8227C143.745 79.9353 143.52 78.9545 143.533 77.9624L139.075 68.4334L143.591 66.4363L147.507 76.0423C148.293 76.6488 148.922 77.4346 149.341 78.3341Z" fill="#FFB6B6"/>
<path d="M120.154 28.1044C120.154 28.1044 124.917 25.2429 127.553 27.6726C130.189 30.1024 140.066 55.3323 140.066 55.3323L148.378 74.1202L142.171 76.6503L123.176 44.766L120.154 28.1044Z" fill="#E6E6E6"/>
<path d="M143.078 156.194C143.078 156.412 142.903 156.588 142.684 156.588H0.394429C0.17568 156.588 0 156.412 0 156.194C0 156.087 0.0397942 155.995 0.106068 155.925H29.844C30.4771 155.925 31.0969 155.882 31.7068 155.799H142.684C142.903 155.799 143.078 155.975 143.078 156.194Z" fill="#3F3D56"/>
<path d="M84.8196 90.9987C85.4111 89.6072 86.6085 88.7844 87.494 89.161C88.3795 89.5376 88.6176 90.9707 88.0257 92.3626C87.7969 92.9219 87.4375 93.4182 86.9775 93.8101L84.3968 99.6743L81.6707 98.4045L84.5043 92.7583C84.4673 92.155 84.5754 91.5516 84.8196 90.9987Z" fill="#FFB6B6"/>
<path d="M67.5828 101.108C70.9498 101.108 73.6792 98.3786 73.6792 95.0116C73.6792 91.6447 70.9498 88.9153 67.5828 88.9153C64.2159 88.9153 61.4865 91.6447 61.4865 95.0116C61.4865 98.3786 64.2159 101.108 67.5828 101.108Z" fill="#FFB6B6"/>
<path d="M75.2504 102.338L81.2166 100.018L83.2053 93.057L87.5142 94.7143L84.1997 104.658L75.2504 108.077V102.338Z" fill="#5953C4"/>
<path d="M66.7811 101.79L70.417 98.8317C70.417 98.8317 70.0729 94.3981 71.3801 93.9993C72.6872 93.6005 74.0503 92.008 74.0503 92.008C74.0503 92.008 71.8869 87.1209 68.0789 87.8625C64.2709 88.6041 65.1398 87.476 62.793 88.7188C60.4463 89.9616 59.896 91.6198 60.1814 93.3818C60.4669 95.1437 59.6172 99.5213 62.4596 99.7467C65.3019 99.9721 66.7811 101.79 66.7811 101.79Z" fill="#2F2E41"/>
<path d="M98.8232 14.26C98.132 12.9997 98.4909 12.398 97.8673 11.9053C97.8673 11.9053 97.6164 11.707 95.7273 11.4545C95.5468 8.36349 95.0462 7.9504 95.0462 7.95039C94.4692 7.4743 93.5512 7.54067 92.9662 7.75692C91.7288 8.21428 91.7717 9.41921 90.95 9.58349C89.8149 9.81041 92.9095 7.86993 92.8733 5.81725C92.8438 4.14284 94.0431 2.61469 94.4609 2.73397C94.8751 2.85224 95.9857 1.6461 96.5283 1.70942C96.8989 1.75266 98.47 1.21399 98.8744 1.29822C99.3159 1.39022 100.725 2.27529 100.801 2.10482C101.324 0.920239 101.226 0.572124 101.615 0.252379C102.305 -0.314207 103.318 0.199671 104.943 0.561922C108.287 1.30726 108.966 0.239422 110.639 1.13362C111.483 1.58532 112.134 2.67342 113.4 4.83117C115.17 7.84876 116.055 9.35756 115.929 11.0247C115.799 12.725 114.985 12.5513 114.422 15.0387C113.796 17.8076 114.549 19.1567 113.542 19.992C112.764 20.6377 106.311 20.6874 105.59 20.0085C104.354 18.8463 106.285 16.4342 104.973 14.4544C104.168 13.2391 102.405 12.5862 101.534 13.0855C100.549 13.6501 100.913 15.5674 100.242 15.6928C99.6678 15.8002 98.9436 14.4797 98.8232 14.26Z" fill="#2F2E41"/>
<path d="M52.9198 91.3092C54.2391 90.1947 53.8888 87.6106 52.1374 85.5374C51.3707 84.6298 50.4626 83.9708 49.5732 83.6099L48.551 82.4302L35.3504 65.8901C35.3504 65.8901 28.04 49.4362 25.882 47.6586C23.7241 45.8811 21.1852 46.8065 21.1852 46.8065L19.2042 49.2574L31.5486 72.231L44.1823 84.9453L45.8878 86.7234C46.095 87.6606 46.5931 88.666 47.3598 89.5735C49.1112 91.6467 51.6005 92.4238 52.9198 91.3092Z" fill="#FFB6B6"/>
<path d="M28.0017 50.718L31.3098 55.5696L36.0589 62.5982L27.5256 65.5501L19.9913 52.6221L28.0017 50.718Z" fill="#E6E6E6"/>
<path d="M31.3604 34.2063L28.9645 43.3407L19.8301 41.5437C19.8301 41.5437 23.424 34.955 22.5255 31.9601L31.3604 34.2063Z" fill="#FFB6B6"/>
<path d="M21.7179 153.107L27.2185 153.107L29.8352 131.89L21.7168 131.89L21.7179 153.107Z" fill="#FFB6B6"/>
<path d="M40.5638 152.983C40.735 153.271 40.8254 154.202 40.8254 154.537C40.8254 155.569 39.9896 156.404 38.9585 156.404H21.9236C21.2202 156.404 20.65 155.834 20.65 155.131V154.422C20.65 154.422 19.8073 152.29 21.5423 149.663C21.5423 149.663 23.6986 151.72 26.9207 148.498L27.8709 146.777L34.7488 151.807L38.5611 152.276C39.3952 152.379 40.1347 152.26 40.5638 152.983Z" fill="#2F2E41"/>
<path d="M36.9913 91.705L29.4116 143.284H19.9019L21.1664 113.841L21.8319 98.3603L19.9019 90.9914C19.9019 90.9914 19.0219 89.3534 18.2806 87.3679C17.445 85.1273 16.785 82.4411 17.7648 81.1674C18.1253 80.6978 19.0626 80.3502 20.3363 80.0914C21.1146 79.9324 22.0205 79.8086 22.9984 79.7124C28.6222 79.156 36.6215 79.5035 36.6215 79.5035L36.8249 86.2143L36.9376 89.9616L36.9913 91.705Z" fill="#2F2E41"/>
<path d="M12.0283 150.585L17.4705 151.384L23.1456 130.774L15.1134 129.593L12.0283 150.585Z" fill="#FFB6B6"/>
<path d="M30.6919 153.203C30.8194 153.513 30.7734 154.447 30.7246 154.779C30.5746 155.799 29.6261 156.505 28.606 156.355L11.7523 153.877C11.0564 153.774 10.5752 153.127 10.6775 152.431L10.7806 151.73C10.7806 151.73 10.2569 149.498 12.3556 147.151C12.3556 147.151 14.1898 149.5 17.8463 146.781L19.0367 145.216L25.1098 151.193L28.8134 152.212C29.6236 152.435 30.3726 152.425 30.6919 153.203Z" fill="#2F2E41"/>
<path d="M37.1105 83.1031L36.0709 92.0563L30.4013 110.923L21.0683 141.984L11.6608 140.602L20.1039 96.4374L19.2679 88.8644C19.2679 88.8644 18.9956 88.1116 18.6836 87.0095C18.0641 84.8293 17.2871 81.2788 18.1419 79.4677C18.2573 79.2215 18.4022 79.0079 18.5815 78.8349C18.9177 78.5089 19.601 78.3109 20.5164 78.2058C24.3429 77.7734 32.2234 79.0103 35.73 79.6175L37.1105 83.1031Z" fill="#2F2E41"/>
<path d="M29.8629 40.6453L40.1952 53.673L38.3405 67.2554L36.7511 81.0761L18.0332 78.2309C18.0332 78.2309 22.0763 68.4976 22.5255 68.0484C22.9747 67.5991 24.1031 68.7086 23.3143 67.2554C22.5255 65.8022 21.627 65.8022 22.3758 65.0535C23.1245 64.3048 16.5358 54.5714 16.5358 49.3304C16.5358 44.0894 19.6804 39.8966 19.6804 39.8966L29.8629 40.6453Z" fill="#E6E6E6"/>
<path d="M27.4523 35.9313C31.2964 35.9313 34.4126 32.815 34.4126 28.9709C34.4126 25.1268 31.2964 22.0106 27.4523 22.0106C23.6082 22.0106 20.4919 25.1268 20.4919 28.9709C20.4919 32.815 23.6082 35.9313 27.4523 35.9313Z" fill="#FFB6B6"/>
<path d="M27.127 42.2789C27.127 42.2789 28.1685 34.0378 28.3529 31.6412C28.5372 29.2446 31.9201 25.5029 31.9201 25.5029L34.3167 27.4386C34.3167 27.4386 36.3446 27.4386 34.962 24.4889C33.5793 21.5393 30.9984 21.0784 30.9984 21.0784C30.9984 21.0784 30.7218 17.207 25.9287 17.6679C21.1355 18.1288 19.0155 22.0002 19.0155 22.0002C19.0155 22.0002 18.7389 17.1148 15.6971 20.7097C12.6553 24.3046 10.904 25.7794 14.1301 26.9777C17.3563 28.176 19.7529 27.2542 19.7529 27.2542C19.7529 27.2542 16.6189 27.8995 17.1719 30.1117C17.725 32.3239 9.89003 42.3711 13.4849 43.4772C17.0798 44.5833 25.0991 47.2564 26.0209 45.5051C26.9426 43.7537 27.127 42.2789 27.127 42.2789Z" fill="#2F2E41"/>
<path d="M55.819 91.9995C57.1476 90.896 56.819 88.3091 55.085 86.2213C54.326 85.3073 53.4234 84.6407 52.5371 84.2724L51.5248 83.0841L38.4632 66.434C38.4632 66.434 31.2911 49.9194 29.1481 48.1238C27.0051 46.3282 24.4585 47.2324 24.4585 47.2324L22.457 49.6665L34.6085 72.7428L47.1352 85.5625L48.8257 87.3549C49.025 88.2937 49.5147 89.3033 50.2738 90.2172C52.0078 92.305 54.4905 93.1029 55.819 91.9995Z" fill="#FFB6B6"/>
<path d="M21.6988 45.9523C21.6988 45.9523 24.8963 62.5454 28.5348 64.9915L35.7854 59.3379C35.7854 59.3379 36.4199 59.3106 35.239 57.9767C34.0581 56.6427 34.3605 53.7783 34.3605 53.7783C34.3605 53.7783 34.8918 54.4658 33.7356 53.5114C32.5793 52.557 33.6557 45.9933 33.6557 45.9933L21.6988 45.9523Z" fill="#E6E6E6"/>
<path d="M74.5081 114.411C74.3553 114.411 74.2178 114.305 74.1844 114.149L73.82 112.456C73.2843 109.967 71.1331 108.148 68.5886 108.035C66.2312 107.929 64.0466 109.325 63.1513 111.508L62.2369 113.737C62.1677 113.906 61.9744 113.987 61.8045 113.918C61.6352 113.848 61.5543 113.654 61.6239 113.485L62.5383 111.256C63.5398 108.816 65.98 107.257 68.6184 107.372C71.4635 107.499 73.8688 109.533 74.468 112.317L74.8325 114.01C74.871 114.189 74.757 114.365 74.5784 114.404C74.5547 114.409 74.5311 114.411 74.5081 114.411Z" fill="#FFB6B6"/>
<path d="M74.8995 119.802C74.8897 119.802 74.8797 119.801 74.8697 119.8L62.6043 118.707C62.4221 118.69 62.2874 118.529 62.3036 118.347C62.3201 118.165 62.4794 118.031 62.6632 118.046L74.9286 119.14C75.1108 119.156 75.2455 119.317 75.2293 119.5C75.2138 119.672 75.0694 119.802 74.8995 119.802Z" fill="#FFB6B6"/>
</g>
<defs>
<clipPath id="clip0_7_612">
<rect width="150" height="156.588" fill="white"/>
</clipPath>
</defs>
</svg>
